<svg width="970" height="250" viewBox="0 0 970 250" fill="none" xmlns="http://www.w3.org/2000/svg">
<rect width="970" height="250" fill="#2F2F2F"/>
<path d="M440.475 169.064L446.979 174.215L444.693 176.324L438.295 171.244L440.475 169.064ZM446.891 158.395V160.012C446.891 161.934 446.65 163.656 446.17 165.18C445.689 166.703 444.998 167.998 444.096 169.064C443.193 170.131 442.109 170.945 440.844 171.508C439.59 172.07 438.184 172.352 436.625 172.352C435.113 172.352 433.725 172.07 432.459 171.508C431.205 170.945 430.115 170.131 429.189 169.064C428.275 167.998 427.566 166.703 427.062 165.18C426.559 163.656 426.307 161.934 426.307 160.012V158.395C426.307 156.473 426.553 154.756 427.045 153.244C427.549 151.721 428.258 150.426 429.172 149.359C430.086 148.281 431.17 147.461 432.424 146.898C433.689 146.336 435.078 146.055 436.59 146.055C438.148 146.055 439.561 146.336 440.826 146.898C442.092 147.461 443.176 148.281 444.078 149.359C444.98 150.426 445.672 151.721 446.152 153.244C446.645 154.756 446.891 156.473 446.891 158.395ZM443.533 160.012V158.359C443.533 156.836 443.375 155.488 443.059 154.316C442.754 153.145 442.303 152.16 441.705 151.363C441.107 150.566 440.381 149.963 439.525 149.553C438.67 149.143 437.691 148.938 436.59 148.938C435.547 148.938 434.598 149.143 433.742 149.553C432.898 149.963 432.172 150.566 431.562 151.363C430.953 152.16 430.484 153.145 430.156 154.316C429.828 155.488 429.664 156.836 429.664 158.359V160.012C429.664 161.547 429.828 162.906 430.156 164.09C430.484 165.262 430.953 166.252 431.562 167.061C432.184 167.857 432.922 168.461 433.777 168.871C434.633 169.281 435.582 169.486 436.625 169.486C437.727 169.486 438.705 169.281 439.561 168.871C440.416 168.461 441.137 167.857 441.723 167.061C442.32 166.252 442.771 165.262 443.076 164.09C443.381 162.906 443.533 161.547 443.533 160.012ZM463.273 167.605V152.98H466.543V172H463.432L463.273 167.605ZM463.889 163.598L465.242 163.562C465.242 164.828 465.107 166 464.838 167.078C464.58 168.145 464.158 169.07 463.572 169.855C462.986 170.641 462.219 171.256 461.27 171.701C460.32 172.135 459.166 172.352 457.807 172.352C456.881 172.352 456.031 172.217 455.258 171.947C454.496 171.678 453.84 171.262 453.289 170.699C452.738 170.137 452.311 169.404 452.006 168.502C451.713 167.6 451.566 166.516 451.566 165.25V152.98H454.818V165.285C454.818 166.141 454.912 166.85 455.1 167.412C455.299 167.963 455.562 168.402 455.891 168.73C456.23 169.047 456.605 169.27 457.016 169.398C457.438 169.527 457.871 169.592 458.316 169.592C459.699 169.592 460.795 169.328 461.604 168.801C462.412 168.262 462.992 167.541 463.344 166.639C463.707 165.725 463.889 164.711 463.889 163.598ZM470.639 162.701V162.297C470.639 160.926 470.838 159.654 471.236 158.482C471.635 157.299 472.209 156.273 472.959 155.406C473.709 154.527 474.617 153.848 475.684 153.367C476.75 152.875 477.945 152.629 479.27 152.629C480.605 152.629 481.807 152.875 482.873 153.367C483.951 153.848 484.865 154.527 485.615 155.406C486.377 156.273 486.957 157.299 487.355 158.482C487.754 159.654 487.953 160.926 487.953 162.297V162.701C487.953 164.072 487.754 165.344 487.355 166.516C486.957 167.688 486.377 168.713 485.615 169.592C484.865 170.459 483.957 171.139 482.891 171.631C481.836 172.111 480.641 172.352 479.305 172.352C477.969 172.352 476.768 172.111 475.701 171.631C474.635 171.139 473.721 170.459 472.959 169.592C472.209 168.713 471.635 167.688 471.236 166.516C470.838 165.344 470.639 164.072 470.639 162.701ZM473.891 162.297V162.701C473.891 163.65 474.002 164.547 474.225 165.391C474.447 166.223 474.781 166.961 475.227 167.605C475.684 168.25 476.252 168.76 476.932 169.135C477.611 169.498 478.402 169.68 479.305 169.68C480.195 169.68 480.975 169.498 481.643 169.135C482.322 168.76 482.885 168.25 483.33 167.605C483.775 166.961 484.109 166.223 484.332 165.391C484.566 164.547 484.684 163.65 484.684 162.701V162.297C484.684 161.359 484.566 160.475 484.332 159.643C484.109 158.799 483.77 158.055 483.312 157.41C482.867 156.754 482.305 156.238 481.625 155.863C480.957 155.488 480.172 155.301 479.27 155.301C478.379 155.301 477.594 155.488 476.914 155.863C476.246 156.238 475.684 156.754 475.227 157.41C474.781 158.055 474.447 158.799 474.225 159.643C474.002 160.475 473.891 161.359 473.891 162.297ZM495.301 145V172H492.031V145H495.301ZM506.92 152.98L498.623 161.857L493.982 166.674L493.719 163.211L497.041 159.238L502.947 152.98H506.92ZM503.949 172L497.164 162.93L498.852 160.029L507.781 172H503.949ZM513.547 145V172H510.277V145H513.547ZM525.166 152.98L516.869 161.857L512.229 166.674L511.965 163.211L515.287 159.238L521.193 152.98H525.166ZM522.195 172L515.41 162.93L517.098 160.029L526.027 172H522.195ZM539.738 168.748V158.957C539.738 158.207 539.586 157.557 539.281 157.006C538.988 156.443 538.543 156.01 537.945 155.705C537.348 155.4 536.609 155.248 535.73 155.248C534.91 155.248 534.189 155.389 533.568 155.67C532.959 155.951 532.479 156.32 532.127 156.777C531.787 157.234 531.617 157.727 531.617 158.254H528.365C528.365 157.574 528.541 156.9 528.893 156.232C529.244 155.564 529.748 154.961 530.404 154.422C531.072 153.871 531.869 153.438 532.795 153.121C533.732 152.793 534.775 152.629 535.924 152.629C537.307 152.629 538.525 152.863 539.58 153.332C540.646 153.801 541.479 154.51 542.076 155.459C542.686 156.396 542.99 157.574 542.99 158.992V167.852C542.99 168.484 543.043 169.158 543.148 169.873C543.266 170.588 543.436 171.203 543.658 171.719V172H540.266C540.102 171.625 539.973 171.127 539.879 170.506C539.785 169.873 539.738 169.287 539.738 168.748ZM540.301 160.469L540.336 162.754H537.049C536.123 162.754 535.297 162.83 534.57 162.982C533.844 163.123 533.234 163.34 532.742 163.633C532.25 163.926 531.875 164.295 531.617 164.74C531.359 165.174 531.23 165.684 531.23 166.27C531.23 166.867 531.365 167.412 531.635 167.904C531.904 168.396 532.309 168.789 532.848 169.082C533.398 169.363 534.072 169.504 534.869 169.504C535.865 169.504 536.744 169.293 537.506 168.871C538.268 168.449 538.871 167.934 539.316 167.324C539.773 166.715 540.02 166.123 540.055 165.549L541.443 167.113C541.361 167.605 541.139 168.15 540.775 168.748C540.412 169.346 539.926 169.92 539.316 170.471C538.719 171.01 538.004 171.461 537.172 171.824C536.352 172.176 535.426 172.352 534.395 172.352C533.105 172.352 531.975 172.1 531.002 171.596C530.041 171.092 529.291 170.418 528.752 169.574C528.225 168.719 527.961 167.764 527.961 166.709C527.961 165.689 528.16 164.793 528.559 164.02C528.957 163.234 529.531 162.584 530.281 162.068C531.031 161.541 531.934 161.143 532.988 160.873C534.043 160.604 535.221 160.469 536.521 160.469H540.301Z" fill="white"/>
<path d="M200.393 196.981H196.974V195.602H200.393C201.055 195.602 201.591 195.496 202.001 195.285C202.411 195.074 202.71 194.781 202.897 194.406C203.091 194.031 203.188 193.604 203.188 193.123C203.188 192.684 203.091 192.271 202.897 191.884C202.71 191.497 202.411 191.187 202.001 190.952C201.591 190.712 201.055 190.592 200.393 190.592H197.369V202H195.673V189.203H200.393C201.359 189.203 202.177 189.37 202.845 189.704C203.513 190.038 204.02 190.501 204.365 191.093C204.711 191.679 204.884 192.35 204.884 193.105C204.884 193.926 204.711 194.626 204.365 195.206C204.02 195.786 203.513 196.229 202.845 196.533C202.177 196.832 201.359 196.981 200.393 196.981ZM206.229 197.351V197.148C206.229 196.463 206.328 195.827 206.527 195.241C206.727 194.649 207.014 194.137 207.389 193.703C207.764 193.264 208.218 192.924 208.751 192.684C209.284 192.438 209.882 192.314 210.544 192.314C211.212 192.314 211.812 192.438 212.346 192.684C212.885 192.924 213.342 193.264 213.717 193.703C214.098 194.137 214.388 194.649 214.587 195.241C214.786 195.827 214.886 196.463 214.886 197.148V197.351C214.886 198.036 214.786 198.672 214.587 199.258C214.388 199.844 214.098 200.356 213.717 200.796C213.342 201.229 212.888 201.569 212.354 201.815C211.827 202.056 211.229 202.176 210.562 202.176C209.894 202.176 209.293 202.056 208.76 201.815C208.227 201.569 207.77 201.229 207.389 200.796C207.014 200.356 206.727 199.844 206.527 199.258C206.328 198.672 206.229 198.036 206.229 197.351ZM207.854 197.148V197.351C207.854 197.825 207.91 198.273 208.021 198.695C208.133 199.111 208.3 199.48 208.522 199.803C208.751 200.125 209.035 200.38 209.375 200.567C209.715 200.749 210.11 200.84 210.562 200.84C211.007 200.84 211.396 200.749 211.73 200.567C212.07 200.38 212.352 200.125 212.574 199.803C212.797 199.48 212.964 199.111 213.075 198.695C213.192 198.273 213.251 197.825 213.251 197.351V197.148C213.251 196.68 213.192 196.237 213.075 195.821C212.964 195.399 212.794 195.027 212.565 194.705C212.343 194.377 212.062 194.119 211.722 193.932C211.388 193.744 210.995 193.65 210.544 193.65C210.099 193.65 209.706 193.744 209.366 193.932C209.032 194.119 208.751 194.377 208.522 194.705C208.3 195.027 208.133 195.399 208.021 195.821C207.91 196.237 207.854 196.68 207.854 197.148ZM219.333 200.312L221.776 192.49H222.849L222.638 194.046L220.15 202H219.104L219.333 200.312ZM217.689 192.49L219.772 200.4L219.922 202H218.823L216.063 192.49H217.689ZM225.187 200.339L227.173 192.49H228.79L226.03 202H224.94L225.187 200.339ZM223.086 192.49L225.477 200.181L225.749 202H224.712L222.154 194.028L221.943 192.49H223.086ZM234.406 202.176C233.744 202.176 233.144 202.064 232.604 201.842C232.071 201.613 231.611 201.294 231.225 200.884C230.844 200.474 230.551 199.987 230.346 199.425C230.141 198.862 230.038 198.247 230.038 197.579V197.21C230.038 196.437 230.152 195.748 230.381 195.145C230.609 194.535 230.92 194.02 231.312 193.598C231.705 193.176 232.15 192.856 232.648 192.64C233.146 192.423 233.662 192.314 234.195 192.314C234.875 192.314 235.461 192.432 235.953 192.666C236.451 192.9 236.858 193.229 237.175 193.65C237.491 194.066 237.726 194.559 237.878 195.127C238.03 195.689 238.106 196.305 238.106 196.973V197.702H231.005V196.375H236.48V196.252C236.457 195.83 236.369 195.42 236.217 195.021C236.07 194.623 235.836 194.295 235.514 194.037C235.191 193.779 234.752 193.65 234.195 193.65C233.826 193.65 233.486 193.729 233.176 193.888C232.865 194.04 232.599 194.269 232.376 194.573C232.153 194.878 231.98 195.25 231.857 195.689C231.734 196.129 231.673 196.636 231.673 197.21V197.579C231.673 198.03 231.734 198.455 231.857 198.854C231.986 199.246 232.171 199.592 232.411 199.891C232.657 200.189 232.953 200.424 233.299 200.594C233.65 200.764 234.049 200.849 234.494 200.849C235.068 200.849 235.555 200.731 235.953 200.497C236.352 200.263 236.7 199.949 236.999 199.557L237.983 200.339C237.778 200.649 237.518 200.945 237.201 201.227C236.885 201.508 236.495 201.736 236.032 201.912C235.575 202.088 235.033 202.176 234.406 202.176ZM241.631 193.984V202H240.005V192.49H241.587L241.631 193.984ZM244.602 192.438L244.593 193.949C244.458 193.92 244.329 193.902 244.206 193.896C244.089 193.885 243.954 193.879 243.802 193.879C243.427 193.879 243.096 193.938 242.809 194.055C242.521 194.172 242.278 194.336 242.079 194.547C241.88 194.758 241.722 195.01 241.604 195.303C241.493 195.59 241.42 195.906 241.385 196.252L240.928 196.516C240.928 195.941 240.983 195.402 241.095 194.898C241.212 194.395 241.391 193.949 241.631 193.562C241.871 193.17 242.176 192.865 242.545 192.648C242.92 192.426 243.365 192.314 243.881 192.314C243.998 192.314 244.133 192.329 244.285 192.358C244.438 192.382 244.543 192.408 244.602 192.438ZM248.671 202H247.045V191.488C247.045 190.803 247.168 190.226 247.414 189.757C247.666 189.282 248.026 188.925 248.495 188.685C248.964 188.438 249.521 188.315 250.165 188.315C250.353 188.315 250.54 188.327 250.728 188.351C250.921 188.374 251.108 188.409 251.29 188.456L251.202 189.783C251.079 189.754 250.938 189.733 250.78 189.722C250.628 189.71 250.476 189.704 250.323 189.704C249.978 189.704 249.679 189.774 249.427 189.915C249.181 190.05 248.993 190.249 248.864 190.513C248.735 190.776 248.671 191.102 248.671 191.488V202ZM250.692 192.49V193.738H245.542V192.49H250.692ZM258.321 199.803V192.49H259.956V202H258.4L258.321 199.803ZM258.629 197.799L259.306 197.781C259.306 198.414 259.238 199 259.104 199.539C258.975 200.072 258.764 200.535 258.471 200.928C258.178 201.32 257.794 201.628 257.319 201.851C256.845 202.067 256.268 202.176 255.588 202.176C255.125 202.176 254.7 202.108 254.313 201.974C253.933 201.839 253.604 201.631 253.329 201.35C253.054 201.068 252.84 200.702 252.688 200.251C252.541 199.8 252.468 199.258 252.468 198.625V192.49H254.094V198.643C254.094 199.07 254.141 199.425 254.234 199.706C254.334 199.981 254.466 200.201 254.63 200.365C254.8 200.523 254.987 200.635 255.192 200.699C255.403 200.764 255.62 200.796 255.843 200.796C256.534 200.796 257.082 200.664 257.486 200.4C257.891 200.131 258.181 199.771 258.356 199.319C258.538 198.862 258.629 198.355 258.629 197.799ZM264.201 188.5V202H262.566V188.5H264.201ZM268.288 200.066V201.376C268.288 201.909 268.153 202.472 267.884 203.063C267.614 203.661 267.236 204.159 266.75 204.558L265.827 203.916C266.015 203.658 266.173 203.395 266.302 203.125C266.431 202.861 266.527 202.586 266.592 202.299C266.662 202.018 266.697 201.719 266.697 201.402V200.066H268.288ZM278.633 200.84C279.02 200.84 279.377 200.761 279.705 200.603C280.033 200.444 280.303 200.228 280.514 199.952C280.725 199.671 280.845 199.352 280.874 198.994H282.421C282.392 199.557 282.201 200.081 281.85 200.567C281.504 201.048 281.05 201.438 280.487 201.736C279.925 202.029 279.307 202.176 278.633 202.176C277.918 202.176 277.294 202.05 276.761 201.798C276.233 201.546 275.794 201.2 275.442 200.761C275.097 200.321 274.836 199.817 274.66 199.249C274.49 198.675 274.405 198.068 274.405 197.43V197.061C274.405 196.422 274.49 195.818 274.66 195.25C274.836 194.676 275.097 194.169 275.442 193.729C275.794 193.29 276.233 192.944 276.761 192.692C277.294 192.44 277.918 192.314 278.633 192.314C279.377 192.314 280.027 192.467 280.584 192.771C281.141 193.07 281.577 193.48 281.894 194.002C282.216 194.518 282.392 195.104 282.421 195.76H280.874C280.845 195.367 280.733 195.013 280.54 194.696C280.353 194.38 280.095 194.128 279.767 193.94C279.444 193.747 279.066 193.65 278.633 193.65C278.135 193.65 277.716 193.75 277.376 193.949C277.042 194.143 276.775 194.406 276.576 194.74C276.383 195.068 276.242 195.435 276.154 195.839C276.072 196.237 276.031 196.645 276.031 197.061V197.43C276.031 197.846 276.072 198.256 276.154 198.66C276.236 199.064 276.374 199.431 276.567 199.759C276.767 200.087 277.033 200.351 277.367 200.55C277.707 200.743 278.129 200.84 278.633 200.84ZM290.067 199.803V192.49H291.702V202H290.146L290.067 199.803ZM290.375 197.799L291.052 197.781C291.052 198.414 290.984 199 290.85 199.539C290.721 200.072 290.51 200.535 290.217 200.928C289.924 201.32 289.54 201.628 289.065 201.851C288.591 202.067 288.014 202.176 287.334 202.176C286.871 202.176 286.446 202.108 286.06 201.974C285.679 201.839 285.351 201.631 285.075 201.35C284.8 201.068 284.586 200.702 284.434 200.251C284.287 199.8 284.214 199.258 284.214 198.625V192.49H285.84V198.643C285.84 199.07 285.887 199.425 285.98 199.706C286.08 199.981 286.212 200.201 286.376 200.365C286.546 200.523 286.733 200.635 286.938 200.699C287.149 200.764 287.366 200.796 287.589 200.796C288.28 200.796 288.828 200.664 289.232 200.4C289.637 200.131 289.927 199.771 290.103 199.319C290.284 198.862 290.375 198.355 290.375 197.799ZM299.718 199.478C299.718 199.243 299.665 199.026 299.56 198.827C299.46 198.622 299.252 198.438 298.936 198.273C298.625 198.104 298.156 197.957 297.529 197.834C297.002 197.723 296.524 197.591 296.097 197.438C295.675 197.286 295.314 197.102 295.016 196.885C294.723 196.668 294.497 196.413 294.339 196.12C294.181 195.827 294.102 195.484 294.102 195.092C294.102 194.717 294.184 194.362 294.348 194.028C294.518 193.694 294.755 193.398 295.06 193.141C295.37 192.883 295.742 192.681 296.176 192.534C296.609 192.388 297.093 192.314 297.626 192.314C298.388 192.314 299.038 192.449 299.577 192.719C300.116 192.988 300.529 193.349 300.816 193.8C301.104 194.245 301.247 194.74 301.247 195.285H299.621C299.621 195.021 299.542 194.767 299.384 194.521C299.231 194.269 299.006 194.061 298.707 193.896C298.414 193.732 298.054 193.65 297.626 193.65C297.175 193.65 296.809 193.721 296.527 193.861C296.252 193.996 296.05 194.169 295.921 194.38C295.798 194.591 295.736 194.813 295.736 195.048C295.736 195.224 295.766 195.382 295.824 195.522C295.889 195.657 296 195.783 296.158 195.9C296.316 196.012 296.539 196.117 296.826 196.217C297.113 196.316 297.479 196.416 297.925 196.516C298.704 196.691 299.346 196.902 299.85 197.148C300.354 197.395 300.729 197.696 300.975 198.054C301.221 198.411 301.344 198.845 301.344 199.354C301.344 199.771 301.256 200.151 301.08 200.497C300.91 200.843 300.661 201.142 300.333 201.394C300.011 201.64 299.624 201.833 299.173 201.974C298.728 202.108 298.227 202.176 297.67 202.176C296.832 202.176 296.123 202.026 295.543 201.728C294.963 201.429 294.523 201.042 294.225 200.567C293.926 200.093 293.776 199.592 293.776 199.064H295.411C295.435 199.51 295.563 199.864 295.798 200.128C296.032 200.386 296.319 200.57 296.659 200.682C296.999 200.787 297.336 200.84 297.67 200.84C298.115 200.84 298.487 200.781 298.786 200.664C299.091 200.547 299.322 200.386 299.48 200.181C299.639 199.976 299.718 199.741 299.718 199.478ZM307.461 192.49V193.738H302.319V192.49H307.461ZM304.06 190.179H305.686V199.645C305.686 199.967 305.735 200.21 305.835 200.374C305.935 200.538 306.063 200.646 306.222 200.699C306.38 200.752 306.55 200.778 306.731 200.778C306.866 200.778 307.007 200.767 307.153 200.743C307.306 200.714 307.42 200.69 307.496 200.673L307.505 202C307.376 202.041 307.206 202.079 306.995 202.114C306.79 202.155 306.541 202.176 306.248 202.176C305.85 202.176 305.483 202.097 305.149 201.938C304.815 201.78 304.549 201.517 304.35 201.147C304.156 200.772 304.06 200.269 304.06 199.636V190.179ZM308.762 197.351V197.148C308.762 196.463 308.861 195.827 309.061 195.241C309.26 194.649 309.547 194.137 309.922 193.703C310.297 193.264 310.751 192.924 311.284 192.684C311.817 192.438 312.415 192.314 313.077 192.314C313.745 192.314 314.346 192.438 314.879 192.684C315.418 192.924 315.875 193.264 316.25 193.703C316.631 194.137 316.921 194.649 317.12 195.241C317.319 195.827 317.419 196.463 317.419 197.148V197.351C317.419 198.036 317.319 198.672 317.12 199.258C316.921 199.844 316.631 200.356 316.25 200.796C315.875 201.229 315.421 201.569 314.888 201.815C314.36 202.056 313.763 202.176 313.095 202.176C312.427 202.176 311.826 202.056 311.293 201.815C310.76 201.569 310.303 201.229 309.922 200.796C309.547 200.356 309.26 199.844 309.061 199.258C308.861 198.672 308.762 198.036 308.762 197.351ZM310.388 197.148V197.351C310.388 197.825 310.443 198.273 310.555 198.695C310.666 199.111 310.833 199.48 311.056 199.803C311.284 200.125 311.568 200.38 311.908 200.567C312.248 200.749 312.644 200.84 313.095 200.84C313.54 200.84 313.93 200.749 314.264 200.567C314.604 200.38 314.885 200.125 315.107 199.803C315.33 199.48 315.497 199.111 315.608 198.695C315.726 198.273 315.784 197.825 315.784 197.351V197.148C315.784 196.68 315.726 196.237 315.608 195.821C315.497 195.399 315.327 195.027 315.099 194.705C314.876 194.377 314.595 194.119 314.255 193.932C313.921 193.744 313.528 193.65 313.077 193.65C312.632 193.65 312.239 193.744 311.899 193.932C311.565 194.119 311.284 194.377 311.056 194.705C310.833 195.027 310.666 195.399 310.555 195.821C310.443 196.237 310.388 196.68 310.388 197.148ZM321.075 194.38V202H319.44V192.49H320.987L321.075 194.38ZM320.741 196.885L319.985 196.858C319.991 196.208 320.076 195.607 320.24 195.057C320.404 194.5 320.647 194.017 320.97 193.606C321.292 193.196 321.693 192.88 322.174 192.657C322.654 192.429 323.211 192.314 323.844 192.314C324.289 192.314 324.699 192.379 325.074 192.508C325.449 192.631 325.774 192.827 326.05 193.097C326.325 193.366 326.539 193.712 326.691 194.134C326.844 194.556 326.92 195.065 326.92 195.663V202H325.294V195.742C325.294 195.244 325.209 194.846 325.039 194.547C324.875 194.248 324.641 194.031 324.336 193.896C324.031 193.756 323.674 193.686 323.264 193.686C322.783 193.686 322.382 193.771 322.06 193.94C321.737 194.11 321.479 194.345 321.286 194.644C321.093 194.942 320.952 195.285 320.864 195.672C320.782 196.053 320.741 196.457 320.741 196.885ZM326.902 195.988L325.812 196.322C325.818 195.801 325.903 195.3 326.067 194.819C326.237 194.339 326.48 193.911 326.797 193.536C327.119 193.161 327.515 192.865 327.983 192.648C328.452 192.426 328.988 192.314 329.592 192.314C330.102 192.314 330.553 192.382 330.945 192.517C331.344 192.651 331.678 192.859 331.947 193.141C332.223 193.416 332.431 193.771 332.571 194.204C332.712 194.638 332.782 195.153 332.782 195.751V202H331.147V195.733C331.147 195.2 331.062 194.787 330.893 194.494C330.729 194.195 330.494 193.987 330.189 193.87C329.891 193.747 329.533 193.686 329.117 193.686C328.76 193.686 328.443 193.747 328.168 193.87C327.893 193.993 327.661 194.163 327.474 194.38C327.286 194.591 327.143 194.834 327.043 195.109C326.949 195.385 326.902 195.678 326.902 195.988ZM337.01 192.49V202H335.375V192.49H337.01ZM335.252 189.968C335.252 189.704 335.331 189.481 335.489 189.3C335.653 189.118 335.894 189.027 336.21 189.027C336.521 189.027 336.758 189.118 336.922 189.3C337.092 189.481 337.177 189.704 337.177 189.968C337.177 190.22 337.092 190.437 336.922 190.618C336.758 190.794 336.521 190.882 336.21 190.882C335.894 190.882 335.653 190.794 335.489 190.618C335.331 190.437 335.252 190.22 335.252 189.968ZM346.704 200.664V202H339.787V200.664H346.704ZM346.449 193.642L340.156 202H339.163V200.805L345.412 192.49H346.449V193.642ZM345.729 192.49V193.835H339.233V192.49H345.729ZM354.157 200.374V195.479C354.157 195.104 354.081 194.778 353.929 194.503C353.782 194.222 353.56 194.005 353.261 193.853C352.962 193.7 352.593 193.624 352.153 193.624C351.743 193.624 351.383 193.694 351.072 193.835C350.768 193.976 350.527 194.16 350.352 194.389C350.182 194.617 350.097 194.863 350.097 195.127H348.471C348.471 194.787 348.559 194.45 348.734 194.116C348.91 193.782 349.162 193.48 349.49 193.211C349.824 192.936 350.223 192.719 350.686 192.561C351.154 192.396 351.676 192.314 352.25 192.314C352.941 192.314 353.551 192.432 354.078 192.666C354.611 192.9 355.027 193.255 355.326 193.729C355.631 194.198 355.783 194.787 355.783 195.496V199.926C355.783 200.242 355.81 200.579 355.862 200.937C355.921 201.294 356.006 201.602 356.117 201.859V202H354.421C354.339 201.812 354.274 201.563 354.228 201.253C354.181 200.937 354.157 200.644 354.157 200.374ZM354.438 196.234L354.456 197.377H352.812C352.35 197.377 351.937 197.415 351.573 197.491C351.21 197.562 350.905 197.67 350.659 197.816C350.413 197.963 350.226 198.147 350.097 198.37C349.968 198.587 349.903 198.842 349.903 199.135C349.903 199.434 349.971 199.706 350.105 199.952C350.24 200.198 350.442 200.395 350.712 200.541C350.987 200.682 351.324 200.752 351.723 200.752C352.221 200.752 352.66 200.646 353.041 200.436C353.422 200.225 353.724 199.967 353.946 199.662C354.175 199.357 354.298 199.062 354.315 198.774L355.01 199.557C354.969 199.803 354.857 200.075 354.676 200.374C354.494 200.673 354.251 200.96 353.946 201.235C353.647 201.505 353.29 201.73 352.874 201.912C352.464 202.088 352.001 202.176 351.485 202.176C350.841 202.176 350.275 202.05 349.789 201.798C349.309 201.546 348.934 201.209 348.664 200.787C348.4 200.359 348.269 199.882 348.269 199.354C348.269 198.845 348.368 198.396 348.567 198.01C348.767 197.617 349.054 197.292 349.429 197.034C349.804 196.771 350.255 196.571 350.782 196.437C351.31 196.302 351.898 196.234 352.549 196.234H354.438ZM358.332 188.5H359.967V200.154L359.826 202H358.332V188.5ZM366.392 197.166V197.351C366.392 198.042 366.31 198.684 366.146 199.275C365.981 199.861 365.741 200.371 365.425 200.805C365.108 201.238 364.722 201.575 364.265 201.815C363.808 202.056 363.283 202.176 362.691 202.176C362.088 202.176 361.558 202.073 361.101 201.868C360.649 201.657 360.269 201.355 359.958 200.963C359.647 200.57 359.398 200.096 359.211 199.539C359.029 198.982 358.903 198.355 358.833 197.658V196.85C358.903 196.146 359.029 195.517 359.211 194.96C359.398 194.403 359.647 193.929 359.958 193.536C360.269 193.138 360.649 192.836 361.101 192.631C361.552 192.42 362.076 192.314 362.674 192.314C363.271 192.314 363.802 192.432 364.265 192.666C364.728 192.895 365.114 193.223 365.425 193.65C365.741 194.078 365.981 194.591 366.146 195.188C366.31 195.78 366.392 196.439 366.392 197.166ZM364.757 197.351V197.166C364.757 196.691 364.713 196.246 364.625 195.83C364.537 195.408 364.396 195.039 364.203 194.723C364.01 194.4 363.755 194.148 363.438 193.967C363.122 193.779 362.732 193.686 362.27 193.686C361.859 193.686 361.502 193.756 361.197 193.896C360.898 194.037 360.644 194.228 360.433 194.468C360.222 194.702 360.049 194.972 359.914 195.276C359.785 195.575 359.688 195.886 359.624 196.208V198.326C359.718 198.736 359.87 199.132 360.081 199.513C360.298 199.888 360.585 200.195 360.942 200.436C361.306 200.676 361.754 200.796 362.287 200.796C362.727 200.796 363.102 200.708 363.412 200.532C363.729 200.351 363.983 200.102 364.177 199.785C364.376 199.469 364.522 199.103 364.616 198.687C364.71 198.271 364.757 197.825 364.757 197.351ZM370.215 188.5V202H368.58V188.5H370.215ZM376.771 202.176C376.109 202.176 375.509 202.064 374.97 201.842C374.437 201.613 373.977 201.294 373.59 200.884C373.209 200.474 372.916 199.987 372.711 199.425C372.506 198.862 372.403 198.247 372.403 197.579V197.21C372.403 196.437 372.518 195.748 372.746 195.145C372.975 194.535 373.285 194.02 373.678 193.598C374.07 193.176 374.516 192.856 375.014 192.64C375.512 192.423 376.027 192.314 376.561 192.314C377.24 192.314 377.826 192.432 378.318 192.666C378.816 192.9 379.224 193.229 379.54 193.65C379.856 194.066 380.091 194.559 380.243 195.127C380.396 195.689 380.472 196.305 380.472 196.973V197.702H373.37V196.375H378.846V196.252C378.822 195.83 378.734 195.42 378.582 195.021C378.436 194.623 378.201 194.295 377.879 194.037C377.557 193.779 377.117 193.65 376.561 193.65C376.191 193.65 375.852 193.729 375.541 193.888C375.23 194.04 374.964 194.269 374.741 194.573C374.519 194.878 374.346 195.25 374.223 195.689C374.1 196.129 374.038 196.636 374.038 197.21V197.579C374.038 198.03 374.1 198.455 374.223 198.854C374.352 199.246 374.536 199.592 374.776 199.891C375.022 200.189 375.318 200.424 375.664 200.594C376.016 200.764 376.414 200.849 376.859 200.849C377.434 200.849 377.92 200.731 378.318 200.497C378.717 200.263 379.065 199.949 379.364 199.557L380.349 200.339C380.144 200.649 379.883 200.945 379.566 201.227C379.25 201.508 378.86 201.736 378.397 201.912C377.94 202.088 377.398 202.176 376.771 202.176ZM383.847 200.066V201.376C383.847 201.909 383.712 202.472 383.442 203.063C383.173 203.661 382.795 204.159 382.309 204.558L381.386 203.916C381.573 203.658 381.731 203.395 381.86 203.125C381.989 202.861 382.086 202.586 382.15 202.299C382.221 202.018 382.256 201.719 382.256 201.402V200.066H383.847ZM394.191 200.84C394.578 200.84 394.936 200.761 395.264 200.603C395.592 200.444 395.861 200.228 396.072 199.952C396.283 199.671 396.403 199.352 396.433 198.994H397.979C397.95 199.557 397.76 200.081 397.408 200.567C397.062 201.048 396.608 201.438 396.046 201.736C395.483 202.029 394.865 202.176 394.191 202.176C393.477 202.176 392.853 202.05 392.319 201.798C391.792 201.546 391.353 201.2 391.001 200.761C390.655 200.321 390.395 199.817 390.219 199.249C390.049 198.675 389.964 198.068 389.964 197.43V197.061C389.964 196.422 390.049 195.818 390.219 195.25C390.395 194.676 390.655 194.169 391.001 193.729C391.353 193.29 391.792 192.944 392.319 192.692C392.853 192.44 393.477 192.314 394.191 192.314C394.936 192.314 395.586 192.467 396.143 192.771C396.699 193.07 397.136 193.48 397.452 194.002C397.774 194.518 397.95 195.104 397.979 195.76H396.433C396.403 195.367 396.292 195.013 396.099 194.696C395.911 194.38 395.653 194.128 395.325 193.94C395.003 193.747 394.625 193.65 394.191 193.65C393.693 193.65 393.274 193.75 392.935 193.949C392.601 194.143 392.334 194.406 392.135 194.74C391.941 195.068 391.801 195.435 391.713 195.839C391.631 196.237 391.59 196.645 391.59 197.061V197.43C391.59 197.846 391.631 198.256 391.713 198.66C391.795 199.064 391.933 199.431 392.126 199.759C392.325 200.087 392.592 200.351 392.926 200.55C393.266 200.743 393.688 200.84 394.191 200.84ZM401.434 193.984V202H399.808V192.49H401.39L401.434 193.984ZM404.404 192.438L404.396 193.949C404.261 193.92 404.132 193.902 404.009 193.896C403.892 193.885 403.757 193.879 403.604 193.879C403.229 193.879 402.898 193.938 402.611 194.055C402.324 194.172 402.081 194.336 401.882 194.547C401.683 194.758 401.524 195.01 401.407 195.303C401.296 195.59 401.223 195.906 401.188 196.252L400.73 196.516C400.73 195.941 400.786 195.402 400.897 194.898C401.015 194.395 401.193 193.949 401.434 193.562C401.674 193.17 401.979 192.865 402.348 192.648C402.723 192.426 403.168 192.314 403.684 192.314C403.801 192.314 403.936 192.329 404.088 192.358C404.24 192.382 404.346 192.408 404.404 192.438ZM405.301 197.351V197.148C405.301 196.463 405.4 195.827 405.6 195.241C405.799 194.649 406.086 194.137 406.461 193.703C406.836 193.264 407.29 192.924 407.823 192.684C408.356 192.438 408.954 192.314 409.616 192.314C410.284 192.314 410.885 192.438 411.418 192.684C411.957 192.924 412.414 193.264 412.789 193.703C413.17 194.137 413.46 194.649 413.659 195.241C413.858 195.827 413.958 196.463 413.958 197.148V197.351C413.958 198.036 413.858 198.672 413.659 199.258C413.46 199.844 413.17 200.356 412.789 200.796C412.414 201.229 411.96 201.569 411.427 201.815C410.899 202.056 410.302 202.176 409.634 202.176C408.966 202.176 408.365 202.056 407.832 201.815C407.299 201.569 406.842 201.229 406.461 200.796C406.086 200.356 405.799 199.844 405.6 199.258C405.4 198.672 405.301 198.036 405.301 197.351ZM406.927 197.148V197.351C406.927 197.825 406.982 198.273 407.094 198.695C407.205 199.111 407.372 199.48 407.595 199.803C407.823 200.125 408.107 200.38 408.447 200.567C408.787 200.749 409.183 200.84 409.634 200.84C410.079 200.84 410.469 200.749 410.803 200.567C411.143 200.38 411.424 200.125 411.646 199.803C411.869 199.48 412.036 199.111 412.147 198.695C412.265 198.273 412.323 197.825 412.323 197.351V197.148C412.323 196.68 412.265 196.237 412.147 195.821C412.036 195.399 411.866 195.027 411.638 194.705C411.415 194.377 411.134 194.119 410.794 193.932C410.46 193.744 410.067 193.65 409.616 193.65C409.171 193.65 408.778 193.744 408.438 193.932C408.104 194.119 407.823 194.377 407.595 194.705C407.372 195.027 407.205 195.399 407.094 195.821C406.982 196.237 406.927 196.68 406.927 197.148ZM421.534 199.478C421.534 199.243 421.481 199.026 421.376 198.827C421.276 198.622 421.068 198.438 420.752 198.273C420.441 198.104 419.973 197.957 419.346 197.834C418.818 197.723 418.341 197.591 417.913 197.438C417.491 197.286 417.131 197.102 416.832 196.885C416.539 196.668 416.313 196.413 416.155 196.12C415.997 195.827 415.918 195.484 415.918 195.092C415.918 194.717 416 194.362 416.164 194.028C416.334 193.694 416.571 193.398 416.876 193.141C417.187 192.883 417.559 192.681 417.992 192.534C418.426 192.388 418.909 192.314 419.442 192.314C420.204 192.314 420.854 192.449 421.394 192.719C421.933 192.988 422.346 193.349 422.633 193.8C422.92 194.245 423.063 194.74 423.063 195.285H421.438C421.438 195.021 421.358 194.767 421.2 194.521C421.048 194.269 420.822 194.061 420.523 193.896C420.23 193.732 419.87 193.65 419.442 193.65C418.991 193.65 418.625 193.721 418.344 193.861C418.068 193.996 417.866 194.169 417.737 194.38C417.614 194.591 417.553 194.813 417.553 195.048C417.553 195.224 417.582 195.382 417.641 195.522C417.705 195.657 417.816 195.783 417.975 195.9C418.133 196.012 418.355 196.117 418.643 196.217C418.93 196.316 419.296 196.416 419.741 196.516C420.521 196.691 421.162 196.902 421.666 197.148C422.17 197.395 422.545 197.696 422.791 198.054C423.037 198.411 423.16 198.845 423.16 199.354C423.16 199.771 423.072 200.151 422.896 200.497C422.727 200.843 422.478 201.142 422.149 201.394C421.827 201.64 421.44 201.833 420.989 201.974C420.544 202.108 420.043 202.176 419.486 202.176C418.648 202.176 417.939 202.026 417.359 201.728C416.779 201.429 416.34 201.042 416.041 200.567C415.742 200.093 415.593 199.592 415.593 199.064H417.228C417.251 199.51 417.38 199.864 417.614 200.128C417.849 200.386 418.136 200.57 418.476 200.682C418.815 200.787 419.152 200.84 419.486 200.84C419.932 200.84 420.304 200.781 420.603 200.664C420.907 200.547 421.139 200.386 421.297 200.181C421.455 199.976 421.534 199.741 421.534 199.478ZM430.833 199.478C430.833 199.243 430.78 199.026 430.675 198.827C430.575 198.622 430.367 198.438 430.051 198.273C429.74 198.104 429.271 197.957 428.645 197.834C428.117 197.723 427.64 197.591 427.212 197.438C426.79 197.286 426.43 197.102 426.131 196.885C425.838 196.668 425.612 196.413 425.454 196.12C425.296 195.827 425.217 195.484 425.217 195.092C425.217 194.717 425.299 194.362 425.463 194.028C425.633 193.694 425.87 193.398 426.175 193.141C426.485 192.883 426.857 192.681 427.291 192.534C427.725 192.388 428.208 192.314 428.741 192.314C429.503 192.314 430.153 192.449 430.692 192.719C431.231 192.988 431.645 193.349 431.932 193.8C432.219 194.245 432.362 194.74 432.362 195.285H430.736C430.736 195.021 430.657 194.767 430.499 194.521C430.347 194.269 430.121 194.061 429.822 193.896C429.529 193.732 429.169 193.65 428.741 193.65C428.29 193.65 427.924 193.721 427.643 193.861C427.367 193.996 427.165 194.169 427.036 194.38C426.913 194.591 426.852 194.813 426.852 195.048C426.852 195.224 426.881 195.382 426.939 195.522C427.004 195.657 427.115 195.783 427.273 195.9C427.432 196.012 427.654 196.117 427.941 196.217C428.229 196.316 428.595 196.416 429.04 196.516C429.819 196.691 430.461 196.902 430.965 197.148C431.469 197.395 431.844 197.696 432.09 198.054C432.336 198.411 432.459 198.845 432.459 199.354C432.459 199.771 432.371 200.151 432.195 200.497C432.025 200.843 431.776 201.142 431.448 201.394C431.126 201.64 430.739 201.833 430.288 201.974C429.843 202.108 429.342 202.176 428.785 202.176C427.947 202.176 427.238 202.026 426.658 201.728C426.078 201.429 425.639 201.042 425.34 200.567C425.041 200.093 424.892 199.592 424.892 199.064H426.526C426.55 199.51 426.679 199.864 426.913 200.128C427.147 200.386 427.435 200.57 427.774 200.682C428.114 200.787 428.451 200.84 428.785 200.84C429.23 200.84 429.603 200.781 429.901 200.664C430.206 200.547 430.438 200.386 430.596 200.181C430.754 199.976 430.833 199.741 430.833 199.478ZM437.979 195.892V197.228H433.689V195.892H437.979ZM441.195 194.318V205.656H439.561V192.49H441.055L441.195 194.318ZM447.603 197.166V197.351C447.603 198.042 447.521 198.684 447.356 199.275C447.192 199.861 446.952 200.371 446.636 200.805C446.325 201.238 445.941 201.575 445.484 201.815C445.027 202.056 444.503 202.176 443.911 202.176C443.308 202.176 442.774 202.076 442.312 201.877C441.849 201.678 441.456 201.388 441.134 201.007C440.812 200.626 440.554 200.169 440.36 199.636C440.173 199.103 440.044 198.502 439.974 197.834V196.85C440.044 196.146 440.176 195.517 440.369 194.96C440.562 194.403 440.817 193.929 441.134 193.536C441.456 193.138 441.846 192.836 442.303 192.631C442.76 192.42 443.287 192.314 443.885 192.314C444.482 192.314 445.013 192.432 445.476 192.666C445.938 192.895 446.328 193.223 446.645 193.65C446.961 194.078 447.198 194.591 447.356 195.188C447.521 195.78 447.603 196.439 447.603 197.166ZM445.968 197.351V197.166C445.968 196.691 445.918 196.246 445.818 195.83C445.719 195.408 445.563 195.039 445.353 194.723C445.147 194.4 444.884 194.148 444.562 193.967C444.239 193.779 443.855 193.686 443.41 193.686C443 193.686 442.643 193.756 442.338 193.896C442.039 194.037 441.784 194.228 441.573 194.468C441.362 194.702 441.189 194.972 441.055 195.276C440.926 195.575 440.829 195.886 440.765 196.208V198.484C440.882 198.895 441.046 199.281 441.257 199.645C441.468 200.002 441.749 200.292 442.101 200.515C442.452 200.731 442.895 200.84 443.428 200.84C443.867 200.84 444.245 200.749 444.562 200.567C444.884 200.38 445.147 200.125 445.353 199.803C445.563 199.48 445.719 199.111 445.818 198.695C445.918 198.273 445.968 197.825 445.968 197.351ZM451.443 188.5V202H449.809V188.5H451.443ZM459.661 200.374V195.479C459.661 195.104 459.585 194.778 459.433 194.503C459.286 194.222 459.063 194.005 458.765 193.853C458.466 193.7 458.097 193.624 457.657 193.624C457.247 193.624 456.887 193.694 456.576 193.835C456.271 193.976 456.031 194.16 455.855 194.389C455.686 194.617 455.601 194.863 455.601 195.127H453.975C453.975 194.787 454.062 194.45 454.238 194.116C454.414 193.782 454.666 193.48 454.994 193.211C455.328 192.936 455.727 192.719 456.189 192.561C456.658 192.396 457.18 192.314 457.754 192.314C458.445 192.314 459.055 192.432 459.582 192.666C460.115 192.9 460.531 193.255 460.83 193.729C461.135 194.198 461.287 194.787 461.287 195.496V199.926C461.287 200.242 461.313 200.579 461.366 200.937C461.425 201.294 461.51 201.602 461.621 201.859V202H459.925C459.843 201.812 459.778 201.563 459.731 201.253C459.685 200.937 459.661 200.644 459.661 200.374ZM459.942 196.234L459.96 197.377H458.316C457.854 197.377 457.44 197.415 457.077 197.491C456.714 197.562 456.409 197.67 456.163 197.816C455.917 197.963 455.729 198.147 455.601 198.37C455.472 198.587 455.407 198.842 455.407 199.135C455.407 199.434 455.475 199.706 455.609 199.952C455.744 200.198 455.946 200.395 456.216 200.541C456.491 200.682 456.828 200.752 457.227 200.752C457.725 200.752 458.164 200.646 458.545 200.436C458.926 200.225 459.228 199.967 459.45 199.662C459.679 199.357 459.802 199.062 459.819 198.774L460.514 199.557C460.473 199.803 460.361 200.075 460.18 200.374C459.998 200.673 459.755 200.96 459.45 201.235C459.151 201.505 458.794 201.73 458.378 201.912C457.968 202.088 457.505 202.176 456.989 202.176C456.345 202.176 455.779 202.05 455.293 201.798C454.812 201.546 454.438 201.209 454.168 200.787C453.904 200.359 453.772 199.882 453.772 199.354C453.772 198.845 453.872 198.396 454.071 198.01C454.271 197.617 454.558 197.292 454.933 197.034C455.308 196.771 455.759 196.571 456.286 196.437C456.813 196.302 457.402 196.234 458.053 196.234H459.942ZM467.826 192.49V193.738H462.685V192.49H467.826ZM464.425 190.179H466.051V199.645C466.051 199.967 466.101 200.21 466.2 200.374C466.3 200.538 466.429 200.646 466.587 200.699C466.745 200.752 466.915 200.778 467.097 200.778C467.231 200.778 467.372 200.767 467.519 200.743C467.671 200.714 467.785 200.69 467.861 200.673L467.87 202C467.741 202.041 467.571 202.079 467.36 202.114C467.155 202.155 466.906 202.176 466.613 202.176C466.215 202.176 465.849 202.097 465.515 201.938C465.181 201.78 464.914 201.517 464.715 201.147C464.521 200.772 464.425 200.269 464.425 199.636V190.179ZM472.159 202H470.533V191.488C470.533 190.803 470.656 190.226 470.902 189.757C471.154 189.282 471.515 188.925 471.983 188.685C472.452 188.438 473.009 188.315 473.653 188.315C473.841 188.315 474.028 188.327 474.216 188.351C474.409 188.374 474.597 188.409 474.778 188.456L474.69 189.783C474.567 189.754 474.427 189.733 474.269 189.722C474.116 189.71 473.964 189.704 473.812 189.704C473.466 189.704 473.167 189.774 472.915 189.915C472.669 190.05 472.481 190.249 472.353 190.513C472.224 190.776 472.159 191.102 472.159 191.488V202ZM474.181 192.49V193.738H469.03V192.49H474.181ZM475.561 197.351V197.148C475.561 196.463 475.66 195.827 475.859 195.241C476.059 194.649 476.346 194.137 476.721 193.703C477.096 193.264 477.55 192.924 478.083 192.684C478.616 192.438 479.214 192.314 479.876 192.314C480.544 192.314 481.145 192.438 481.678 192.684C482.217 192.924 482.674 193.264 483.049 193.703C483.43 194.137 483.72 194.649 483.919 195.241C484.118 195.827 484.218 196.463 484.218 197.148V197.351C484.218 198.036 484.118 198.672 483.919 199.258C483.72 199.844 483.43 200.356 483.049 200.796C482.674 201.229 482.22 201.569 481.687 201.815C481.159 202.056 480.562 202.176 479.894 202.176C479.226 202.176 478.625 202.056 478.092 201.815C477.559 201.569 477.102 201.229 476.721 200.796C476.346 200.356 476.059 199.844 475.859 199.258C475.66 198.672 475.561 198.036 475.561 197.351ZM477.187 197.148V197.351C477.187 197.825 477.242 198.273 477.354 198.695C477.465 199.111 477.632 199.48 477.854 199.803C478.083 200.125 478.367 200.38 478.707 200.567C479.047 200.749 479.442 200.84 479.894 200.84C480.339 200.84 480.729 200.749 481.062 200.567C481.402 200.38 481.684 200.125 481.906 199.803C482.129 199.48 482.296 199.111 482.407 198.695C482.524 198.273 482.583 197.825 482.583 197.351V197.148C482.583 196.68 482.524 196.237 482.407 195.821C482.296 195.399 482.126 195.027 481.897 194.705C481.675 194.377 481.394 194.119 481.054 193.932C480.72 193.744 480.327 193.65 479.876 193.65C479.431 193.65 479.038 193.744 478.698 193.932C478.364 194.119 478.083 194.377 477.854 194.705C477.632 195.027 477.465 195.399 477.354 195.821C477.242 196.237 477.187 196.68 477.187 197.148ZM487.883 193.984V202H486.257V192.49H487.839L487.883 193.984ZM490.854 192.438L490.845 193.949C490.71 193.92 490.581 193.902 490.458 193.896C490.341 193.885 490.206 193.879 490.054 193.879C489.679 193.879 489.348 193.938 489.061 194.055C488.773 194.172 488.53 194.336 488.331 194.547C488.132 194.758 487.974 195.01 487.856 195.303C487.745 195.59 487.672 195.906 487.637 196.252L487.18 196.516C487.18 195.941 487.235 195.402 487.347 194.898C487.464 194.395 487.643 193.949 487.883 193.562C488.123 193.17 488.428 192.865 488.797 192.648C489.172 192.426 489.617 192.314 490.133 192.314C490.25 192.314 490.385 192.329 490.537 192.358C490.689 192.382 490.795 192.408 490.854 192.438ZM493.974 194.38V202H492.339V192.49H493.886L493.974 194.38ZM493.64 196.885L492.884 196.858C492.89 196.208 492.975 195.607 493.139 195.057C493.303 194.5 493.546 194.017 493.868 193.606C494.19 193.196 494.592 192.88 495.072 192.657C495.553 192.429 496.109 192.314 496.742 192.314C497.188 192.314 497.598 192.379 497.973 192.508C498.348 192.631 498.673 192.827 498.948 193.097C499.224 193.366 499.438 193.712 499.59 194.134C499.742 194.556 499.818 195.065 499.818 195.663V202H498.192V195.742C498.192 195.244 498.107 194.846 497.938 194.547C497.773 194.248 497.539 194.031 497.234 193.896C496.93 193.756 496.572 193.686 496.162 193.686C495.682 193.686 495.28 193.771 494.958 193.94C494.636 194.11 494.378 194.345 494.185 194.644C493.991 194.942 493.851 195.285 493.763 195.672C493.681 196.053 493.64 196.457 493.64 196.885ZM499.801 195.988L498.711 196.322C498.717 195.801 498.802 195.3 498.966 194.819C499.136 194.339 499.379 193.911 499.695 193.536C500.018 193.161 500.413 192.865 500.882 192.648C501.351 192.426 501.887 192.314 502.49 192.314C503 192.314 503.451 192.382 503.844 192.517C504.242 192.651 504.576 192.859 504.846 193.141C505.121 193.416 505.329 193.771 505.47 194.204C505.61 194.638 505.681 195.153 505.681 195.751V202H504.046V195.733C504.046 195.2 503.961 194.787 503.791 194.494C503.627 194.195 503.393 193.987 503.088 193.87C502.789 193.747 502.432 193.686 502.016 193.686C501.658 193.686 501.342 193.747 501.066 193.87C500.791 193.993 500.56 194.163 500.372 194.38C500.185 194.591 500.041 194.834 499.941 195.109C499.848 195.385 499.801 195.678 499.801 195.988ZM509.618 200.066V201.376C509.618 201.909 509.483 202.472 509.214 203.063C508.944 203.661 508.566 204.159 508.08 204.558L507.157 203.916C507.345 203.658 507.503 203.395 507.632 203.125C507.761 202.861 507.857 202.586 507.922 202.299C507.992 202.018 508.027 201.719 508.027 201.402V200.066H509.618ZM515.727 197.351V197.148C515.727 196.463 515.826 195.827 516.025 195.241C516.225 194.649 516.512 194.137 516.887 193.703C517.262 193.264 517.716 192.924 518.249 192.684C518.782 192.438 519.38 192.314 520.042 192.314C520.71 192.314 521.311 192.438 521.844 192.684C522.383 192.924 522.84 193.264 523.215 193.703C523.596 194.137 523.886 194.649 524.085 195.241C524.284 195.827 524.384 196.463 524.384 197.148V197.351C524.384 198.036 524.284 198.672 524.085 199.258C523.886 199.844 523.596 200.356 523.215 200.796C522.84 201.229 522.386 201.569 521.853 201.815C521.325 202.056 520.728 202.176 520.06 202.176C519.392 202.176 518.791 202.056 518.258 201.815C517.725 201.569 517.268 201.229 516.887 200.796C516.512 200.356 516.225 199.844 516.025 199.258C515.826 198.672 515.727 198.036 515.727 197.351ZM517.353 197.148V197.351C517.353 197.825 517.408 198.273 517.52 198.695C517.631 199.111 517.798 199.48 518.021 199.803C518.249 200.125 518.533 200.38 518.873 200.567C519.213 200.749 519.608 200.84 520.06 200.84C520.505 200.84 520.895 200.749 521.229 200.567C521.568 200.38 521.85 200.125 522.072 199.803C522.295 199.48 522.462 199.111 522.573 198.695C522.69 198.273 522.749 197.825 522.749 197.351V197.148C522.749 196.68 522.69 196.237 522.573 195.821C522.462 195.399 522.292 195.027 522.063 194.705C521.841 194.377 521.56 194.119 521.22 193.932C520.886 193.744 520.493 193.65 520.042 193.65C519.597 193.65 519.204 193.744 518.864 193.932C518.53 194.119 518.249 194.377 518.021 194.705C517.798 195.027 517.631 195.399 517.52 195.821C517.408 196.237 517.353 196.68 517.353 197.148ZM528.049 194.318V205.656H526.414V192.49H527.908L528.049 194.318ZM534.456 197.166V197.351C534.456 198.042 534.374 198.684 534.21 199.275C534.046 199.861 533.806 200.371 533.489 200.805C533.179 201.238 532.795 201.575 532.338 201.815C531.881 202.056 531.356 202.176 530.765 202.176C530.161 202.176 529.628 202.076 529.165 201.877C528.702 201.678 528.31 201.388 527.987 201.007C527.665 200.626 527.407 200.169 527.214 199.636C527.026 199.103 526.897 198.502 526.827 197.834V196.85C526.897 196.146 527.029 195.517 527.223 194.96C527.416 194.403 527.671 193.929 527.987 193.536C528.31 193.138 528.699 192.836 529.156 192.631C529.613 192.42 530.141 192.314 530.738 192.314C531.336 192.314 531.866 192.432 532.329 192.666C532.792 192.895 533.182 193.223 533.498 193.65C533.814 194.078 534.052 194.591 534.21 195.188C534.374 195.78 534.456 196.439 534.456 197.166ZM532.821 197.351V197.166C532.821 196.691 532.771 196.246 532.672 195.83C532.572 195.408 532.417 195.039 532.206 194.723C532.001 194.4 531.737 194.148 531.415 193.967C531.093 193.779 530.709 193.686 530.264 193.686C529.854 193.686 529.496 193.756 529.191 193.896C528.893 194.037 528.638 194.228 528.427 194.468C528.216 194.702 528.043 194.972 527.908 195.276C527.779 195.575 527.683 195.886 527.618 196.208V198.484C527.735 198.895 527.899 199.281 528.11 199.645C528.321 200.002 528.603 200.292 528.954 200.515C529.306 200.731 529.748 200.84 530.281 200.84C530.721 200.84 531.099 200.749 531.415 200.567C531.737 200.38 532.001 200.125 532.206 199.803C532.417 199.48 532.572 199.111 532.672 198.695C532.771 198.273 532.821 197.825 532.821 197.351ZM540.477 202.176C539.814 202.176 539.214 202.064 538.675 201.842C538.142 201.613 537.682 201.294 537.295 200.884C536.914 200.474 536.621 199.987 536.416 199.425C536.211 198.862 536.108 198.247 536.108 197.579V197.21C536.108 196.437 536.223 195.748 536.451 195.145C536.68 194.535 536.99 194.02 537.383 193.598C537.775 193.176 538.221 192.856 538.719 192.64C539.217 192.423 539.732 192.314 540.266 192.314C540.945 192.314 541.531 192.432 542.023 192.666C542.521 192.9 542.929 193.229 543.245 193.65C543.562 194.066 543.796 194.559 543.948 195.127C544.101 195.689 544.177 196.305 544.177 196.973V197.702H537.075V196.375H542.551V196.252C542.527 195.83 542.439 195.42 542.287 195.021C542.141 194.623 541.906 194.295 541.584 194.037C541.262 193.779 540.822 193.65 540.266 193.65C539.896 193.65 539.557 193.729 539.246 193.888C538.936 194.04 538.669 194.269 538.446 194.573C538.224 194.878 538.051 195.25 537.928 195.689C537.805 196.129 537.743 196.636 537.743 197.21V197.579C537.743 198.03 537.805 198.455 537.928 198.854C538.057 199.246 538.241 199.592 538.481 199.891C538.728 200.189 539.023 200.424 539.369 200.594C539.721 200.764 540.119 200.849 540.564 200.849C541.139 200.849 541.625 200.731 542.023 200.497C542.422 200.263 542.771 199.949 543.069 199.557L544.054 200.339C543.849 200.649 543.588 200.945 543.271 201.227C542.955 201.508 542.565 201.736 542.103 201.912C541.646 202.088 541.104 202.176 540.477 202.176ZM547.701 194.521V202H546.075V192.49H547.613L547.701 194.521ZM547.314 196.885L546.638 196.858C546.644 196.208 546.74 195.607 546.928 195.057C547.115 194.5 547.379 194.017 547.719 193.606C548.059 193.196 548.463 192.88 548.932 192.657C549.406 192.429 549.931 192.314 550.505 192.314C550.974 192.314 551.396 192.379 551.771 192.508C552.146 192.631 552.465 192.83 552.729 193.105C552.998 193.381 553.203 193.738 553.344 194.178C553.484 194.611 553.555 195.142 553.555 195.769V202H551.92V195.751C551.92 195.253 551.847 194.854 551.7 194.556C551.554 194.251 551.34 194.031 551.059 193.896C550.777 193.756 550.432 193.686 550.021 193.686C549.617 193.686 549.248 193.771 548.914 193.94C548.586 194.11 548.302 194.345 548.062 194.644C547.827 194.942 547.643 195.285 547.508 195.672C547.379 196.053 547.314 196.457 547.314 196.885ZM561.562 199.478C561.562 199.243 561.509 199.026 561.403 198.827C561.304 198.622 561.096 198.438 560.779 198.273C560.469 198.104 560 197.957 559.373 197.834C558.846 197.723 558.368 197.591 557.94 197.438C557.519 197.286 557.158 197.102 556.859 196.885C556.566 196.668 556.341 196.413 556.183 196.12C556.024 195.827 555.945 195.484 555.945 195.092C555.945 194.717 556.027 194.362 556.191 194.028C556.361 193.694 556.599 193.398 556.903 193.141C557.214 192.883 557.586 192.681 558.02 192.534C558.453 192.388 558.937 192.314 559.47 192.314C560.231 192.314 560.882 192.449 561.421 192.719C561.96 192.988 562.373 193.349 562.66 193.8C562.947 194.245 563.091 194.74 563.091 195.285H561.465C561.465 195.021 561.386 194.767 561.228 194.521C561.075 194.269 560.85 194.061 560.551 193.896C560.258 193.732 559.897 193.65 559.47 193.65C559.019 193.65 558.652 193.721 558.371 193.861C558.096 193.996 557.894 194.169 557.765 194.38C557.642 194.591 557.58 194.813 557.58 195.048C557.58 195.224 557.609 195.382 557.668 195.522C557.732 195.657 557.844 195.783 558.002 195.9C558.16 196.012 558.383 196.117 558.67 196.217C558.957 196.316 559.323 196.416 559.769 196.516C560.548 196.691 561.189 196.902 561.693 197.148C562.197 197.395 562.572 197.696 562.818 198.054C563.064 198.411 563.188 198.845 563.188 199.354C563.188 199.771 563.1 200.151 562.924 200.497C562.754 200.843 562.505 201.142 562.177 201.394C561.854 201.64 561.468 201.833 561.017 201.974C560.571 202.108 560.07 202.176 559.514 202.176C558.676 202.176 557.967 202.026 557.387 201.728C556.807 201.429 556.367 201.042 556.068 200.567C555.77 200.093 555.62 199.592 555.62 199.064H557.255C557.278 199.51 557.407 199.864 557.642 200.128C557.876 200.386 558.163 200.57 558.503 200.682C558.843 200.787 559.18 200.84 559.514 200.84C559.959 200.84 560.331 200.781 560.63 200.664C560.935 200.547 561.166 200.386 561.324 200.181C561.482 199.976 561.562 199.741 561.562 199.478ZM564.893 197.351V197.148C564.893 196.463 564.992 195.827 565.191 195.241C565.391 194.649 565.678 194.137 566.053 193.703C566.428 193.264 566.882 192.924 567.415 192.684C567.948 192.438 568.546 192.314 569.208 192.314C569.876 192.314 570.477 192.438 571.01 192.684C571.549 192.924 572.006 193.264 572.381 193.703C572.762 194.137 573.052 194.649 573.251 195.241C573.45 195.827 573.55 196.463 573.55 197.148V197.351C573.55 198.036 573.45 198.672 573.251 199.258C573.052 199.844 572.762 200.356 572.381 200.796C572.006 201.229 571.552 201.569 571.019 201.815C570.491 202.056 569.894 202.176 569.226 202.176C568.558 202.176 567.957 202.056 567.424 201.815C566.891 201.569 566.434 201.229 566.053 200.796C565.678 200.356 565.391 199.844 565.191 199.258C564.992 198.672 564.893 198.036 564.893 197.351ZM566.519 197.148V197.351C566.519 197.825 566.574 198.273 566.686 198.695C566.797 199.111 566.964 199.48 567.187 199.803C567.415 200.125 567.699 200.38 568.039 200.567C568.379 200.749 568.774 200.84 569.226 200.84C569.671 200.84 570.061 200.749 570.395 200.567C570.734 200.38 571.016 200.125 571.238 199.803C571.461 199.48 571.628 199.111 571.739 198.695C571.856 198.273 571.915 197.825 571.915 197.351V197.148C571.915 196.68 571.856 196.237 571.739 195.821C571.628 195.399 571.458 195.027 571.229 194.705C571.007 194.377 570.726 194.119 570.386 193.932C570.052 193.744 569.659 193.65 569.208 193.65C568.763 193.65 568.37 193.744 568.03 193.932C567.696 194.119 567.415 194.377 567.187 194.705C566.964 195.027 566.797 195.399 566.686 195.821C566.574 196.237 566.519 196.68 566.519 197.148ZM581.407 199.803V192.49H583.042V202H581.486L581.407 199.803ZM581.715 197.799L582.392 197.781C582.392 198.414 582.324 199 582.189 199.539C582.061 200.072 581.85 200.535 581.557 200.928C581.264 201.32 580.88 201.628 580.405 201.851C579.931 202.067 579.354 202.176 578.674 202.176C578.211 202.176 577.786 202.108 577.399 201.974C577.019 201.839 576.69 201.631 576.415 201.35C576.14 201.068 575.926 200.702 575.773 200.251C575.627 199.8 575.554 199.258 575.554 198.625V192.49H577.18V198.643C577.18 199.07 577.227 199.425 577.32 199.706C577.42 199.981 577.552 200.201 577.716 200.365C577.886 200.523 578.073 200.635 578.278 200.699C578.489 200.764 578.706 200.796 578.929 200.796C579.62 200.796 580.168 200.664 580.572 200.4C580.977 200.131 581.267 199.771 581.442 199.319C581.624 198.862 581.715 198.355 581.715 197.799ZM587.146 193.984V202H585.521V192.49H587.103L587.146 193.984ZM590.117 192.438L590.108 193.949C589.974 193.92 589.845 193.902 589.722 193.896C589.604 193.885 589.47 193.879 589.317 193.879C588.942 193.879 588.611 193.938 588.324 194.055C588.037 194.172 587.794 194.336 587.595 194.547C587.396 194.758 587.237 195.01 587.12 195.303C587.009 195.59 586.936 195.906 586.9 196.252L586.443 196.516C586.443 195.941 586.499 195.402 586.61 194.898C586.728 194.395 586.906 193.949 587.146 193.562C587.387 193.17 587.691 192.865 588.061 192.648C588.436 192.426 588.881 192.314 589.396 192.314C589.514 192.314 589.648 192.329 589.801 192.358C589.953 192.382 590.059 192.408 590.117 192.438ZM595.25 200.84C595.637 200.84 595.994 200.761 596.322 200.603C596.65 200.444 596.92 200.228 597.131 199.952C597.342 199.671 597.462 199.352 597.491 198.994H599.038C599.009 199.557 598.818 200.081 598.467 200.567C598.121 201.048 597.667 201.438 597.104 201.736C596.542 202.029 595.924 202.176 595.25 202.176C594.535 202.176 593.911 202.05 593.378 201.798C592.851 201.546 592.411 201.2 592.06 200.761C591.714 200.321 591.453 199.817 591.277 199.249C591.107 198.675 591.022 198.068 591.022 197.43V197.061C591.022 196.422 591.107 195.818 591.277 195.25C591.453 194.676 591.714 194.169 592.06 193.729C592.411 193.29 592.851 192.944 593.378 192.692C593.911 192.44 594.535 192.314 595.25 192.314C595.994 192.314 596.645 192.467 597.201 192.771C597.758 193.07 598.194 193.48 598.511 194.002C598.833 194.518 599.009 195.104 599.038 195.76H597.491C597.462 195.367 597.351 195.013 597.157 194.696C596.97 194.38 596.712 194.128 596.384 193.94C596.062 193.747 595.684 193.65 595.25 193.65C594.752 193.65 594.333 193.75 593.993 193.949C593.659 194.143 593.393 194.406 593.193 194.74C593 195.068 592.859 195.435 592.771 195.839C592.689 196.237 592.648 196.645 592.648 197.061V197.43C592.648 197.846 592.689 198.256 592.771 198.66C592.854 199.064 592.991 199.431 593.185 199.759C593.384 200.087 593.65 200.351 593.984 200.55C594.324 200.743 594.746 200.84 595.25 200.84ZM604.812 202.176C604.15 202.176 603.55 202.064 603.011 201.842C602.478 201.613 602.018 201.294 601.631 200.884C601.25 200.474 600.957 199.987 600.752 199.425C600.547 198.862 600.444 198.247 600.444 197.579V197.21C600.444 196.437 600.559 195.748 600.787 195.145C601.016 194.535 601.326 194.02 601.719 193.598C602.111 193.176 602.557 192.856 603.055 192.64C603.553 192.423 604.068 192.314 604.602 192.314C605.281 192.314 605.867 192.432 606.359 192.666C606.857 192.9 607.265 193.229 607.581 193.65C607.897 194.066 608.132 194.559 608.284 195.127C608.437 195.689 608.513 196.305 608.513 196.973V197.702H601.411V196.375H606.887V196.252C606.863 195.83 606.775 195.42 606.623 195.021C606.477 194.623 606.242 194.295 605.92 194.037C605.598 193.779 605.158 193.65 604.602 193.65C604.232 193.65 603.893 193.729 603.582 193.888C603.271 194.04 603.005 194.269 602.782 194.573C602.56 194.878 602.387 195.25 602.264 195.689C602.141 196.129 602.079 196.636 602.079 197.21V197.579C602.079 198.03 602.141 198.455 602.264 198.854C602.393 199.246 602.577 199.592 602.817 199.891C603.063 200.189 603.359 200.424 603.705 200.594C604.057 200.764 604.455 200.849 604.9 200.849C605.475 200.849 605.961 200.731 606.359 200.497C606.758 200.263 607.106 199.949 607.405 199.557L608.39 200.339C608.185 200.649 607.924 200.945 607.607 201.227C607.291 201.508 606.901 201.736 606.438 201.912C605.981 202.088 605.439 202.176 604.812 202.176ZM618.857 192.49V193.738H613.716V192.49H618.857ZM615.456 190.179H617.082V199.645C617.082 199.967 617.132 200.21 617.231 200.374C617.331 200.538 617.46 200.646 617.618 200.699C617.776 200.752 617.946 200.778 618.128 200.778C618.263 200.778 618.403 200.767 618.55 200.743C618.702 200.714 618.816 200.69 618.893 200.673L618.901 202C618.772 202.041 618.603 202.079 618.392 202.114C618.187 202.155 617.938 202.176 617.645 202.176C617.246 202.176 616.88 202.097 616.546 201.938C616.212 201.78 615.945 201.517 615.746 201.147C615.553 200.772 615.456 200.269 615.456 199.636V190.179ZM626.372 200.374V195.479C626.372 195.104 626.296 194.778 626.144 194.503C625.997 194.222 625.774 194.005 625.476 193.853C625.177 193.7 624.808 193.624 624.368 193.624C623.958 193.624 623.598 193.694 623.287 193.835C622.982 193.976 622.742 194.16 622.566 194.389C622.396 194.617 622.312 194.863 622.312 195.127H620.686C620.686 194.787 620.773 194.45 620.949 194.116C621.125 193.782 621.377 193.48 621.705 193.211C622.039 192.936 622.438 192.719 622.9 192.561C623.369 192.396 623.891 192.314 624.465 192.314C625.156 192.314 625.766 192.432 626.293 192.666C626.826 192.9 627.242 193.255 627.541 193.729C627.846 194.198 627.998 194.787 627.998 195.496V199.926C627.998 200.242 628.024 200.579 628.077 200.937C628.136 201.294 628.221 201.602 628.332 201.859V202H626.636C626.554 201.812 626.489 201.563 626.442 201.253C626.396 200.937 626.372 200.644 626.372 200.374ZM626.653 196.234L626.671 197.377H625.027C624.564 197.377 624.151 197.415 623.788 197.491C623.425 197.562 623.12 197.67 622.874 197.816C622.628 197.963 622.44 198.147 622.312 198.37C622.183 198.587 622.118 198.842 622.118 199.135C622.118 199.434 622.186 199.706 622.32 199.952C622.455 200.198 622.657 200.395 622.927 200.541C623.202 200.682 623.539 200.752 623.938 200.752C624.436 200.752 624.875 200.646 625.256 200.436C625.637 200.225 625.938 199.967 626.161 199.662C626.39 199.357 626.513 199.062 626.53 198.774L627.225 199.557C627.184 199.803 627.072 200.075 626.891 200.374C626.709 200.673 626.466 200.96 626.161 201.235C625.862 201.505 625.505 201.73 625.089 201.912C624.679 202.088 624.216 202.176 623.7 202.176C623.056 202.176 622.49 202.05 622.004 201.798C621.523 201.546 621.148 201.209 620.879 200.787C620.615 200.359 620.483 199.882 620.483 199.354C620.483 198.845 620.583 198.396 620.782 198.01C620.981 197.617 621.269 197.292 621.644 197.034C622.019 196.771 622.47 196.571 622.997 196.437C623.524 196.302 624.113 196.234 624.764 196.234H626.653ZM630.547 188.5H632.182V200.154L632.041 202H630.547V188.5ZM638.606 197.166V197.351C638.606 198.042 638.524 198.684 638.36 199.275C638.196 199.861 637.956 200.371 637.64 200.805C637.323 201.238 636.937 201.575 636.479 201.815C636.022 202.056 635.498 202.176 634.906 202.176C634.303 202.176 633.772 202.073 633.315 201.868C632.864 201.657 632.483 201.355 632.173 200.963C631.862 200.57 631.613 200.096 631.426 199.539C631.244 198.982 631.118 198.355 631.048 197.658V196.85C631.118 196.146 631.244 195.517 631.426 194.96C631.613 194.403 631.862 193.929 632.173 193.536C632.483 193.138 632.864 192.836 633.315 192.631C633.767 192.42 634.291 192.314 634.889 192.314C635.486 192.314 636.017 192.432 636.479 192.666C636.942 192.895 637.329 193.223 637.64 193.65C637.956 194.078 638.196 194.591 638.36 195.188C638.524 195.78 638.606 196.439 638.606 197.166ZM636.972 197.351V197.166C636.972 196.691 636.928 196.246 636.84 195.83C636.752 195.408 636.611 195.039 636.418 194.723C636.225 194.4 635.97 194.148 635.653 193.967C635.337 193.779 634.947 193.686 634.484 193.686C634.074 193.686 633.717 193.756 633.412 193.896C633.113 194.037 632.858 194.228 632.647 194.468C632.437 194.702 632.264 194.972 632.129 195.276C632 195.575 631.903 195.886 631.839 196.208V198.326C631.933 198.736 632.085 199.132 632.296 199.513C632.513 199.888 632.8 200.195 633.157 200.436C633.521 200.676 633.969 200.796 634.502 200.796C634.941 200.796 635.316 200.708 635.627 200.532C635.943 200.351 636.198 200.102 636.392 199.785C636.591 199.469 636.737 199.103 636.831 198.687C636.925 198.271 636.972 197.825 636.972 197.351ZM642.43 188.5V202H640.795V188.5H642.43ZM648.986 202.176C648.324 202.176 647.724 202.064 647.185 201.842C646.651 201.613 646.191 201.294 645.805 200.884C645.424 200.474 645.131 199.987 644.926 199.425C644.721 198.862 644.618 198.247 644.618 197.579V197.21C644.618 196.437 644.732 195.748 644.961 195.145C645.189 194.535 645.5 194.02 645.893 193.598C646.285 193.176 646.73 192.856 647.229 192.64C647.727 192.423 648.242 192.314 648.775 192.314C649.455 192.314 650.041 192.432 650.533 192.666C651.031 192.9 651.438 193.229 651.755 193.65C652.071 194.066 652.306 194.559 652.458 195.127C652.61 195.689 652.687 196.305 652.687 196.973V197.702H645.585V196.375H651.061V196.252C651.037 195.83 650.949 195.42 650.797 195.021C650.65 194.623 650.416 194.295 650.094 194.037C649.771 193.779 649.332 193.65 648.775 193.65C648.406 193.65 648.066 193.729 647.756 193.888C647.445 194.04 647.179 194.269 646.956 194.573C646.733 194.878 646.561 195.25 646.438 195.689C646.314 196.129 646.253 196.636 646.253 197.21V197.579C646.253 198.03 646.314 198.455 646.438 198.854C646.566 199.246 646.751 199.592 646.991 199.891C647.237 200.189 647.533 200.424 647.879 200.594C648.23 200.764 648.629 200.849 649.074 200.849C649.648 200.849 650.135 200.731 650.533 200.497C650.932 200.263 651.28 199.949 651.579 199.557L652.563 200.339C652.358 200.649 652.098 200.945 651.781 201.227C651.465 201.508 651.075 201.736 650.612 201.912C650.155 202.088 649.613 202.176 648.986 202.176ZM664.587 199.478C664.587 199.243 664.534 199.026 664.429 198.827C664.329 198.622 664.121 198.438 663.805 198.273C663.494 198.104 663.025 197.957 662.398 197.834C661.871 197.723 661.394 197.591 660.966 197.438C660.544 197.286 660.184 197.102 659.885 196.885C659.592 196.668 659.366 196.413 659.208 196.12C659.05 195.827 658.971 195.484 658.971 195.092C658.971 194.717 659.053 194.362 659.217 194.028C659.387 193.694 659.624 193.398 659.929 193.141C660.239 192.883 660.611 192.681 661.045 192.534C661.479 192.388 661.962 192.314 662.495 192.314C663.257 192.314 663.907 192.449 664.446 192.719C664.985 192.988 665.398 193.349 665.686 193.8C665.973 194.245 666.116 194.74 666.116 195.285H664.49C664.49 195.021 664.411 194.767 664.253 194.521C664.101 194.269 663.875 194.061 663.576 193.896C663.283 193.732 662.923 193.65 662.495 193.65C662.044 193.65 661.678 193.721 661.396 193.861C661.121 193.996 660.919 194.169 660.79 194.38C660.667 194.591 660.605 194.813 660.605 195.048C660.605 195.224 660.635 195.382 660.693 195.522C660.758 195.657 660.869 195.783 661.027 195.9C661.186 196.012 661.408 196.117 661.695 196.217C661.982 196.316 662.349 196.416 662.794 196.516C663.573 196.691 664.215 196.902 664.719 197.148C665.223 197.395 665.598 197.696 665.844 198.054C666.09 198.411 666.213 198.845 666.213 199.354C666.213 199.771 666.125 200.151 665.949 200.497C665.779 200.843 665.53 201.142 665.202 201.394C664.88 201.64 664.493 201.833 664.042 201.974C663.597 202.108 663.096 202.176 662.539 202.176C661.701 202.176 660.992 202.026 660.412 201.728C659.832 201.429 659.393 201.042 659.094 200.567C658.795 200.093 658.646 199.592 658.646 199.064H660.28C660.304 199.51 660.433 199.864 660.667 200.128C660.901 200.386 661.188 200.57 661.528 200.682C661.868 200.787 662.205 200.84 662.539 200.84C662.984 200.84 663.356 200.781 663.655 200.664C663.96 200.547 664.191 200.386 664.35 200.181C664.508 199.976 664.587 199.741 664.587 199.478ZM673.956 200.374V195.479C673.956 195.104 673.88 194.778 673.728 194.503C673.581 194.222 673.358 194.005 673.06 193.853C672.761 193.7 672.392 193.624 671.952 193.624C671.542 193.624 671.182 193.694 670.871 193.835C670.566 193.976 670.326 194.16 670.15 194.389C669.98 194.617 669.896 194.863 669.896 195.127H668.27C668.27 194.787 668.357 194.45 668.533 194.116C668.709 193.782 668.961 193.48 669.289 193.211C669.623 192.936 670.021 192.719 670.484 192.561C670.953 192.396 671.475 192.314 672.049 192.314C672.74 192.314 673.35 192.432 673.877 192.666C674.41 192.9 674.826 193.255 675.125 193.729C675.43 194.198 675.582 194.787 675.582 195.496V199.926C675.582 200.242 675.608 200.579 675.661 200.937C675.72 201.294 675.805 201.602 675.916 201.859V202H674.22C674.138 201.812 674.073 201.563 674.026 201.253C673.979 200.937 673.956 200.644 673.956 200.374ZM674.237 196.234L674.255 197.377H672.611C672.148 197.377 671.735 197.415 671.372 197.491C671.009 197.562 670.704 197.67 670.458 197.816C670.212 197.963 670.024 198.147 669.896 198.37C669.767 198.587 669.702 198.842 669.702 199.135C669.702 199.434 669.77 199.706 669.904 199.952C670.039 200.198 670.241 200.395 670.511 200.541C670.786 200.682 671.123 200.752 671.521 200.752C672.02 200.752 672.459 200.646 672.84 200.436C673.221 200.225 673.522 199.967 673.745 199.662C673.974 199.357 674.097 199.062 674.114 198.774L674.809 199.557C674.768 199.803 674.656 200.075 674.475 200.374C674.293 200.673 674.05 200.96 673.745 201.235C673.446 201.505 673.089 201.73 672.673 201.912C672.263 202.088 671.8 202.176 671.284 202.176C670.64 202.176 670.074 202.05 669.588 201.798C669.107 201.546 668.732 201.209 668.463 200.787C668.199 200.359 668.067 199.882 668.067 199.354C668.067 198.845 668.167 198.396 668.366 198.01C668.565 197.617 668.853 197.292 669.228 197.034C669.603 196.771 670.054 196.571 670.581 196.437C671.108 196.302 671.697 196.234 672.348 196.234H674.237ZM679.766 194.521V202H678.14V192.49H679.678L679.766 194.521ZM679.379 196.885L678.702 196.858C678.708 196.208 678.805 195.607 678.992 195.057C679.18 194.5 679.443 194.017 679.783 193.606C680.123 193.196 680.527 192.88 680.996 192.657C681.471 192.429 681.995 192.314 682.569 192.314C683.038 192.314 683.46 192.379 683.835 192.508C684.21 192.631 684.529 192.83 684.793 193.105C685.062 193.381 685.268 193.738 685.408 194.178C685.549 194.611 685.619 195.142 685.619 195.769V202H683.984V195.751C683.984 195.253 683.911 194.854 683.765 194.556C683.618 194.251 683.404 194.031 683.123 193.896C682.842 193.756 682.496 193.686 682.086 193.686C681.682 193.686 681.312 193.771 680.979 193.94C680.65 194.11 680.366 194.345 680.126 194.644C679.892 194.942 679.707 195.285 679.572 195.672C679.443 196.053 679.379 196.457 679.379 196.885ZM694.083 200.154V188.5H695.718V202H694.224L694.083 200.154ZM687.685 197.351V197.166C687.685 196.439 687.772 195.78 687.948 195.188C688.13 194.591 688.385 194.078 688.713 193.65C689.047 193.223 689.442 192.895 689.899 192.666C690.362 192.432 690.878 192.314 691.446 192.314C692.044 192.314 692.565 192.42 693.011 192.631C693.462 192.836 693.843 193.138 694.153 193.536C694.47 193.929 694.719 194.403 694.9 194.96C695.082 195.517 695.208 196.146 695.278 196.85V197.658C695.214 198.355 695.088 198.982 694.9 199.539C694.719 200.096 694.47 200.57 694.153 200.963C693.843 201.355 693.462 201.657 693.011 201.868C692.56 202.073 692.032 202.176 691.429 202.176C690.872 202.176 690.362 202.056 689.899 201.815C689.442 201.575 689.047 201.238 688.713 200.805C688.385 200.371 688.13 199.861 687.948 199.275C687.772 198.684 687.685 198.042 687.685 197.351ZM689.319 197.166V197.351C689.319 197.825 689.366 198.271 689.46 198.687C689.56 199.103 689.712 199.469 689.917 199.785C690.122 200.102 690.383 200.351 690.699 200.532C691.016 200.708 691.394 200.796 691.833 200.796C692.372 200.796 692.814 200.682 693.16 200.453C693.512 200.225 693.793 199.923 694.004 199.548C694.215 199.173 694.379 198.766 694.496 198.326V196.208C694.426 195.886 694.323 195.575 694.188 195.276C694.06 194.972 693.89 194.702 693.679 194.468C693.474 194.228 693.219 194.037 692.914 193.896C692.615 193.756 692.261 193.686 691.851 193.686C691.405 193.686 691.021 193.779 690.699 193.967C690.383 194.148 690.122 194.4 689.917 194.723C689.712 195.039 689.56 195.408 689.46 195.83C689.366 196.246 689.319 196.691 689.319 197.166ZM698.24 188.5H699.875V200.154L699.734 202H698.24V188.5ZM706.3 197.166V197.351C706.3 198.042 706.218 198.684 706.054 199.275C705.89 199.861 705.649 200.371 705.333 200.805C705.017 201.238 704.63 201.575 704.173 201.815C703.716 202.056 703.191 202.176 702.6 202.176C701.996 202.176 701.466 202.073 701.009 201.868C700.558 201.657 700.177 201.355 699.866 200.963C699.556 200.57 699.307 200.096 699.119 199.539C698.938 198.982 698.812 198.355 698.741 197.658V196.85C698.812 196.146 698.938 195.517 699.119 194.96C699.307 194.403 699.556 193.929 699.866 193.536C700.177 193.138 700.558 192.836 701.009 192.631C701.46 192.42 701.984 192.314 702.582 192.314C703.18 192.314 703.71 192.432 704.173 192.666C704.636 192.895 705.022 193.223 705.333 193.65C705.649 194.078 705.89 194.591 706.054 195.188C706.218 195.78 706.3 196.439 706.3 197.166ZM704.665 197.351V197.166C704.665 196.691 704.621 196.246 704.533 195.83C704.445 195.408 704.305 195.039 704.111 194.723C703.918 194.4 703.663 194.148 703.347 193.967C703.03 193.779 702.641 193.686 702.178 193.686C701.768 193.686 701.41 193.756 701.105 193.896C700.807 194.037 700.552 194.228 700.341 194.468C700.13 194.702 699.957 194.972 699.822 195.276C699.693 195.575 699.597 195.886 699.532 196.208V198.326C699.626 198.736 699.778 199.132 699.989 199.513C700.206 199.888 700.493 200.195 700.851 200.436C701.214 200.676 701.662 200.796 702.195 200.796C702.635 200.796 703.01 200.708 703.32 200.532C703.637 200.351 703.892 200.102 704.085 199.785C704.284 199.469 704.431 199.103 704.524 198.687C704.618 198.271 704.665 197.825 704.665 197.351ZM707.926 197.351V197.148C707.926 196.463 708.025 195.827 708.225 195.241C708.424 194.649 708.711 194.137 709.086 193.703C709.461 193.264 709.915 192.924 710.448 192.684C710.981 192.438 711.579 192.314 712.241 192.314C712.909 192.314 713.51 192.438 714.043 192.684C714.582 192.924 715.039 193.264 715.414 193.703C715.795 194.137 716.085 194.649 716.284 195.241C716.483 195.827 716.583 196.463 716.583 197.148V197.351C716.583 198.036 716.483 198.672 716.284 199.258C716.085 199.844 715.795 200.356 715.414 200.796C715.039 201.229 714.585 201.569 714.052 201.815C713.524 202.056 712.927 202.176 712.259 202.176C711.591 202.176 710.99 202.056 710.457 201.815C709.924 201.569 709.467 201.229 709.086 200.796C708.711 200.356 708.424 199.844 708.225 199.258C708.025 198.672 707.926 198.036 707.926 197.351ZM709.552 197.148V197.351C709.552 197.825 709.607 198.273 709.719 198.695C709.83 199.111 709.997 199.48 710.22 199.803C710.448 200.125 710.732 200.38 711.072 200.567C711.412 200.749 711.808 200.84 712.259 200.84C712.704 200.84 713.094 200.749 713.428 200.567C713.768 200.38 714.049 200.125 714.271 199.803C714.494 199.48 714.661 199.111 714.772 198.695C714.89 198.273 714.948 197.825 714.948 197.351V197.148C714.948 196.68 714.89 196.237 714.772 195.821C714.661 195.399 714.491 195.027 714.263 194.705C714.04 194.377 713.759 194.119 713.419 193.932C713.085 193.744 712.692 193.65 712.241 193.65C711.796 193.65 711.403 193.744 711.063 193.932C710.729 194.119 710.448 194.377 710.22 194.705C709.997 195.027 709.83 195.399 709.719 195.821C709.607 196.237 709.552 196.68 709.552 197.148ZM719.527 192.49L721.61 195.953L723.72 192.49H725.627L722.516 197.184L725.724 202H723.843L721.646 198.432L719.448 202H717.559L720.758 197.184L717.655 192.49H719.527ZM737.984 192.49H739.461V201.798C739.461 202.636 739.291 203.351 738.951 203.942C738.611 204.534 738.137 204.982 737.527 205.287C736.924 205.598 736.227 205.753 735.436 205.753C735.107 205.753 734.721 205.7 734.275 205.595C733.836 205.495 733.402 205.322 732.975 205.076C732.553 204.836 732.198 204.511 731.911 204.101L732.764 203.134C733.162 203.614 733.578 203.948 734.012 204.136C734.451 204.323 734.885 204.417 735.312 204.417C735.828 204.417 736.273 204.32 736.648 204.127C737.023 203.934 737.313 203.646 737.519 203.266C737.729 202.891 737.835 202.428 737.835 201.877V194.582L737.984 192.49ZM731.437 197.351V197.166C731.437 196.439 731.521 195.78 731.691 195.188C731.867 194.591 732.116 194.078 732.438 193.65C732.767 193.223 733.162 192.895 733.625 192.666C734.088 192.432 734.609 192.314 735.189 192.314C735.787 192.314 736.309 192.42 736.754 192.631C737.205 192.836 737.586 193.138 737.896 193.536C738.213 193.929 738.462 194.403 738.644 194.96C738.825 195.517 738.951 196.146 739.021 196.85V197.658C738.957 198.355 738.831 198.982 738.644 199.539C738.462 200.096 738.213 200.57 737.896 200.963C737.586 201.355 737.205 201.657 736.754 201.868C736.303 202.073 735.775 202.176 735.172 202.176C734.604 202.176 734.088 202.056 733.625 201.815C733.168 201.575 732.775 201.238 732.447 200.805C732.119 200.371 731.867 199.861 731.691 199.275C731.521 198.684 731.437 198.042 731.437 197.351ZM733.062 197.166V197.351C733.062 197.825 733.109 198.271 733.203 198.687C733.303 199.103 733.452 199.469 733.651 199.785C733.856 200.102 734.117 200.351 734.434 200.532C734.75 200.708 735.128 200.796 735.567 200.796C736.106 200.796 736.552 200.682 736.903 200.453C737.255 200.225 737.533 199.923 737.738 199.548C737.949 199.173 738.113 198.766 738.23 198.326V196.208C738.166 195.886 738.066 195.575 737.932 195.276C737.803 194.972 737.633 194.702 737.422 194.468C737.217 194.228 736.962 194.037 736.657 193.896C736.353 193.756 735.995 193.686 735.585 193.686C735.14 193.686 734.756 193.779 734.434 193.967C734.117 194.148 733.856 194.4 733.651 194.723C733.452 195.039 733.303 195.408 733.203 195.83C733.109 196.246 733.062 196.691 733.062 197.166ZM747.538 200.374V195.479C747.538 195.104 747.462 194.778 747.31 194.503C747.163 194.222 746.94 194.005 746.642 193.853C746.343 193.7 745.974 193.624 745.534 193.624C745.124 193.624 744.764 193.694 744.453 193.835C744.148 193.976 743.908 194.16 743.732 194.389C743.562 194.617 743.478 194.863 743.478 195.127H741.852C741.852 194.787 741.939 194.45 742.115 194.116C742.291 193.782 742.543 193.48 742.871 193.211C743.205 192.936 743.604 192.719 744.066 192.561C744.535 192.396 745.057 192.314 745.631 192.314C746.322 192.314 746.932 192.432 747.459 192.666C747.992 192.9 748.408 193.255 748.707 193.729C749.012 194.198 749.164 194.787 749.164 195.496V199.926C749.164 200.242 749.19 200.579 749.243 200.937C749.302 201.294 749.387 201.602 749.498 201.859V202H747.802C747.72 201.812 747.655 201.563 747.608 201.253C747.562 200.937 747.538 200.644 747.538 200.374ZM747.819 196.234L747.837 197.377H746.193C745.73 197.377 745.317 197.415 744.954 197.491C744.591 197.562 744.286 197.67 744.04 197.816C743.794 197.963 743.606 198.147 743.478 198.37C743.349 198.587 743.284 198.842 743.284 199.135C743.284 199.434 743.352 199.706 743.486 199.952C743.621 200.198 743.823 200.395 744.093 200.541C744.368 200.682 744.705 200.752 745.104 200.752C745.602 200.752 746.041 200.646 746.422 200.436C746.803 200.225 747.104 199.967 747.327 199.662C747.556 199.357 747.679 199.062 747.696 198.774L748.391 199.557C748.35 199.803 748.238 200.075 748.057 200.374C747.875 200.673 747.632 200.96 747.327 201.235C747.028 201.505 746.671 201.73 746.255 201.912C745.845 202.088 745.382 202.176 744.866 202.176C744.222 202.176 743.656 202.05 743.17 201.798C742.689 201.546 742.314 201.209 742.045 200.787C741.781 200.359 741.649 199.882 741.649 199.354C741.649 198.845 741.749 198.396 741.948 198.01C742.147 197.617 742.435 197.292 742.81 197.034C743.185 196.771 743.636 196.571 744.163 196.437C744.69 196.302 745.279 196.234 745.93 196.234H747.819ZM753.339 194.38V202H751.704V192.49H753.251L753.339 194.38ZM753.005 196.885L752.249 196.858C752.255 196.208 752.34 195.607 752.504 195.057C752.668 194.5 752.911 194.017 753.233 193.606C753.556 193.196 753.957 192.88 754.438 192.657C754.918 192.429 755.475 192.314 756.107 192.314C756.553 192.314 756.963 192.379 757.338 192.508C757.713 192.631 758.038 192.827 758.313 193.097C758.589 193.366 758.803 193.712 758.955 194.134C759.107 194.556 759.184 195.065 759.184 195.663V202H757.558V195.742C757.558 195.244 757.473 194.846 757.303 194.547C757.139 194.248 756.904 194.031 756.6 193.896C756.295 193.756 755.938 193.686 755.527 193.686C755.047 193.686 754.646 193.771 754.323 193.94C754.001 194.11 753.743 194.345 753.55 194.644C753.356 194.942 753.216 195.285 753.128 195.672C753.046 196.053 753.005 196.457 753.005 196.885ZM759.166 195.988L758.076 196.322C758.082 195.801 758.167 195.3 758.331 194.819C758.501 194.339 758.744 193.911 759.061 193.536C759.383 193.161 759.778 192.865 760.247 192.648C760.716 192.426 761.252 192.314 761.855 192.314C762.365 192.314 762.816 192.382 763.209 192.517C763.607 192.651 763.941 192.859 764.211 193.141C764.486 193.416 764.694 193.771 764.835 194.204C764.976 194.638 765.046 195.153 765.046 195.751V202H763.411V195.733C763.411 195.2 763.326 194.787 763.156 194.494C762.992 194.195 762.758 193.987 762.453 193.87C762.154 193.747 761.797 193.686 761.381 193.686C761.023 193.686 760.707 193.747 760.432 193.87C760.156 193.993 759.925 194.163 759.737 194.38C759.55 194.591 759.406 194.834 759.307 195.109C759.213 195.385 759.166 195.678 759.166 195.988ZM771.453 202.176C770.791 202.176 770.19 202.064 769.651 201.842C769.118 201.613 768.658 201.294 768.271 200.884C767.891 200.474 767.598 199.987 767.393 199.425C767.188 198.862 767.085 198.247 767.085 197.579V197.21C767.085 196.437 767.199 195.748 767.428 195.145C767.656 194.535 767.967 194.02 768.359 193.598C768.752 193.176 769.197 192.856 769.695 192.64C770.193 192.423 770.709 192.314 771.242 192.314C771.922 192.314 772.508 192.432 773 192.666C773.498 192.9 773.905 193.229 774.222 193.65C774.538 194.066 774.772 194.559 774.925 195.127C775.077 195.689 775.153 196.305 775.153 196.973V197.702H768.052V196.375H773.527V196.252C773.504 195.83 773.416 195.42 773.264 195.021C773.117 194.623 772.883 194.295 772.561 194.037C772.238 193.779 771.799 193.65 771.242 193.65C770.873 193.65 770.533 193.729 770.223 193.888C769.912 194.04 769.646 194.269 769.423 194.573C769.2 194.878 769.027 195.25 768.904 195.689C768.781 196.129 768.72 196.636 768.72 197.21V197.579C768.72 198.03 768.781 198.455 768.904 198.854C769.033 199.246 769.218 199.592 769.458 199.891C769.704 200.189 770 200.424 770.346 200.594C770.697 200.764 771.096 200.849 771.541 200.849C772.115 200.849 772.602 200.731 773 200.497C773.398 200.263 773.747 199.949 774.046 199.557L775.03 200.339C774.825 200.649 774.564 200.945 774.248 201.227C773.932 201.508 773.542 201.736 773.079 201.912C772.622 202.088 772.08 202.176 771.453 202.176Z" fill="white"/>
<g filter="url(#filter0_d_1772_2)">
<circle cx="458" cy="49" r="9" fill="#844623"/>
</g>
<g filter="url(#filter1_d_1772_2)">
<circle cx="512" cy="49" r="9" fill="#844623"/>
</g>
<path d="M450.585 65.8689C452.567 55.4994 461.636 48 472.194 48H497.808C508.366 48 517.435 55.4994 519.417 65.8689L524.005 89.8689C526.598 103.43 516.203 116 502.397 116H467.605C453.798 116 443.404 103.43 445.997 89.8689L450.585 65.8689Z" fill="#B46B43"/>
<g filter="url(#filter2_d_1772_2)">
<path d="M451.384 61.5636C453.489 51.3378 462.492 44 472.932 44H497.068C507.508 44 516.511 51.3378 518.616 61.5636L523.557 85.5636C526.367 99.2112 515.943 112 502.009 112H467.991C454.057 112 443.633 99.2112 446.443 85.5636L451.384 61.5636Z" fill="#844623"/>
</g>
<g filter="url(#filter3_d_1772_2)">
<circle cx="463" cy="64" r="6" fill="white"/>
</g>
<circle cx="485" cy="86" r="18" fill="#8B5334"/>
<g filter="url(#filter4_d_1772_2)">
<circle cx="463" cy="64" r="4" fill="black"/>
</g>
<g filter="url(#filter5_d_1772_2)">
<circle cx="507" cy="64" r="6" fill="white"/>
</g>
<g filter="url(#filter6_d_1772_2)">
<circle cx="507" cy="64" r="4" fill="black"/>
</g>
<path d="M493 82C493 84.2091 489 86 484.999 86C481 86 477 84.2091 477 82C477 79.7909 482.79 78 484.999 78C487.208 78 493 79.7909 493 82Z" fill="black"/>
<path d="M485 84C485 84 485 84.1895 485 92M485 92C485 92 480.832 94 479 94C475.556 94 473 92 473 92M485 92C485 92 488.474 94 491 94C494.028 94 497 92 497 92" stroke="black" stroke-width="0.5"/>
<defs>
<filter id="filter0_d_1772_2" x="445" y="40" width="26" height="26" filterUnits="userSpaceOnUse" color-interpolation-filters="sRGB">
<feFlood flood-opacity="0" result="BackgroundImageFix"/>
<feColorMatrix in="SourceAlpha" type="matrix" values="0 0 0 0 0 0 0 0 0 0 0 0 0 0 0 0 0 0 127 0" result="hardAlpha"/>
<feOffset dy="4"/>
<feGaussianBlur stdDeviation="2"/>
<feColorMatrix type="matrix" values="0 0 0 0 0 0 0 0 0 0 0 0 0 0 0 0 0 0 0.25 0"/>
<feBlend mode="normal" in2="BackgroundImageFix" result="effect1_dropShadow_1772_2"/>
<feBlend mode="normal" in="SourceGraphic" in2="effect1_dropShadow_1772_2" result="shape"/>
</filter>
<filter id="filter1_d_1772_2" x="499" y="40" width="26" height="26" filterUnits="userSpaceOnUse" color-interpolation-filters="sRGB">
<feFlood flood-opacity="0" result="BackgroundImageFix"/>
<feColorMatrix in="SourceAlpha" type="matrix" values="0 0 0 0 0 0 0 0 0 0 0 0 0 0 0 0 0 0 127 0" result="hardAlpha"/>
<feOffset dy="4"/>
<feGaussianBlur stdDeviation="2"/>
<feColorMatrix type="matrix" values="0 0 0 0 0 0 0 0 0 0 0 0 0 0 0 0 0 0 0.25 0"/>
<feBlend mode="normal" in2="BackgroundImageFix" result="effect1_dropShadow_1772_2"/>
<feBlend mode="normal" in="SourceGraphic" in2="effect1_dropShadow_1772_2" result="shape"/>
</filter>
<filter id="filter2_d_1772_2" x="441.983" y="44" width="86.0332" height="76" filterUnits="userSpaceOnUse" color-interpolation-filters="sRGB">
<feFlood flood-opacity="0" result="BackgroundImageFix"/>
<feColorMatrix in="SourceAlpha" type="matrix" values="0 0 0 0 0 0 0 0 0 0 0 0 0 0 0 0 0 0 127 0" result="hardAlpha"/>
<feOffset dy="4"/>
<feGaussianBlur stdDeviation="2"/>
<feColorMatrix type="matrix" values="0 0 0 0 0 0 0 0 0 0 0 0 0 0 0 0 0 0 0.25 0"/>
<feBlend mode="normal" in2="BackgroundImageFix" result="effect1_dropShadow_1772_2"/>
<feBlend mode="normal" in="SourceGraphic" in2="effect1_dropShadow_1772_2" result="shape"/>
</filter>
<filter id="filter3_d_1772_2" x="453" y="58" width="20" height="20" filterUnits="userSpaceOnUse" color-interpolation-filters="sRGB">
<feFlood flood-opacity="0" result="BackgroundImageFix"/>
<feColorMatrix in="SourceAlpha" type="matrix" values="0 0 0 0 0 0 0 0 0 0 0 0 0 0 0 0 0 0 127 0" result="hardAlpha"/>
<feOffset dy="4"/>
<feGaussianBlur stdDeviation="2"/>
<feColorMatrix type="matrix" values="0 0 0 0 0 0 0 0 0 0 0 0 0 0 0 0 0 0 0.25 0"/>
<feBlend mode="normal" in2="BackgroundImageFix" result="effect1_dropShadow_1772_2"/>
<feBlend mode="normal" in="SourceGraphic" in2="effect1_dropShadow_1772_2" result="shape"/>
</filter>
<filter id="filter4_d_1772_2" x="455" y="60" width="16" height="16" filterUnits="userSpaceOnUse" color-interpolation-filters="sRGB">
<feFlood flood-opacity="0" result="BackgroundImageFix"/>
<feColorMatrix in="SourceAlpha" type="matrix" values="0 0 0 0 0 0 0 0 0 0 0 0 0 0 0 0 0 0 127 0" result="hardAlpha"/>
<feOffset dy="4"/>
<feGaussianBlur stdDeviation="2"/>
<feColorMatrix type="matrix" values="0 0 0 0 0 0 0 0 0 0 0 0 0 0 0 0 0 0 0.25 0"/>
<feBlend mode="normal" in2="BackgroundImageFix" result="effect1_dropShadow_1772_2"/>
<feBlend mode="normal" in="SourceGraphic" in2="effect1_dropShadow_1772_2" result="shape"/>
</filter>
<filter id="filter5_d_1772_2" x="497" y="58" width="20" height="20" filterUnits="userSpaceOnUse" color-interpolation-filters="sRGB">
<feFlood flood-opacity="0" result="BackgroundImageFix"/>
<feColorMatrix in="SourceAlpha" type="matrix" values="0 0 0 0 0 0 0 0 0 0 0 0 0 0 0 0 0 0 127 0" result="hardAlpha"/>
<feOffset dy="4"/>
<feGaussianBlur stdDeviation="2"/>
<feColorMatrix type="matrix" values="0 0 0 0 0 0 0 0 0 0 0 0 0 0 0 0 0 0 0.25 0"/>
<feBlend mode="normal" in2="BackgroundImageFix" result="effect1_dropShadow_1772_2"/>
<feBlend mode="normal" in="SourceGraphic" in2="effect1_dropShadow_1772_2" result="shape"/>
</filter>
<filter id="filter6_d_1772_2" x="499" y="60" width="16" height="16" filterUnits="userSpaceOnUse" color-interpolation-filters="sRGB">
<feFlood flood-opacity="0" result="BackgroundImageFix"/>
<feColorMatrix in="SourceAlpha" type="matrix" values="0 0 0 0 0 0 0 0 0 0 0 0 0 0 0 0 0 0 127 0" result="hardAlpha"/>
<feOffset dy="4"/>
<feGaussianBlur stdDeviation="2"/>
<feColorMatrix type="matrix" values="0 0 0 0 0 0 0 0 0 0 0 0 0 0 0 0 0 0 0.25 0"/>
<feBlend mode="normal" in2="BackgroundImageFix" result="effect1_dropShadow_1772_2"/>
<feBlend mode="normal" in="SourceGraphic" in2="effect1_dropShadow_1772_2" result="shape"/>
</filter>
</defs>
</svg>
