<svg width="64" height="64" viewBox="0 0 64 64" fill="none" xmlns="http://www.w3.org/2000/svg">
<g clip-path="url(#clip0_1772_45)">
<g filter="url(#filter0_d_1772_45)">
<rect x="5" y="6" width="54" height="52" rx="2" fill="#FBAC11"/>
</g>
<line x1="10.5" y1="42.5" x2="53.5" y2="42.5" stroke="black" stroke-linecap="round"/>
<line x1="10.5" y1="47.5" x2="53.5" y2="47.5" stroke="black" stroke-linecap="round"/>
<line x1="10.5" y1="52.5" x2="53.5" y2="52.5" stroke="black" stroke-linecap="round"/>
<g clip-path="url(#clip1_1772_45)">
<rect x="16" y="8" width="32" height="32" rx="16" fill="white"/>
<g filter="url(#filter1_d_1772_45)">
<circle cx="25.25" cy="16.75" r="2.25" fill="#844623"/>
</g>
<g filter="url(#filter2_d_1772_45)">
<circle cx="38.75" cy="16.75" r="2.25" fill="#844623"/>
</g>
<path d="M23.396 20.9672C23.8916 18.3749 26.1588 16.5 28.7981 16.5H35.2019C37.8412 16.5 40.1084 18.3749 40.604 20.9672L41.7511 26.9672C42.3992 30.3575 39.8006 33.5 36.3489 33.5H27.6511C24.1994 33.5 21.6008 30.3575 22.2489 26.9672L23.396 20.9672Z" fill="#B46B43"/>
<g filter="url(#filter3_d_1772_45)">
<path d="M23.596 19.8909C24.1223 17.3345 26.3729 15.5 28.983 15.5H35.017C37.6271 15.5 39.8777 17.3345 40.404 19.8909L41.6393 25.8909C42.3418 29.3028 39.7357 32.5 36.2523 32.5H27.7477C24.2643 32.5 21.6582 29.3028 22.3607 25.8909L23.596 19.8909Z" fill="#844623"/>
</g>
<g filter="url(#filter4_d_1772_45)">
<circle cx="26.5" cy="20.5" r="1.5" fill="white"/>
</g>
<circle cx="32" cy="26" r="4.5" fill="#8B5334"/>
<g filter="url(#filter5_d_1772_45)">
<circle cx="26.5" cy="20.5" r="1" fill="black"/>
</g>
<g filter="url(#filter6_d_1772_45)">
<circle cx="37.5" cy="20.5" r="1.5" fill="white"/>
</g>
<g filter="url(#filter7_d_1772_45)">
<circle cx="37.5" cy="20.5" r="1" fill="black"/>
</g>
<path d="M34 25C34 25.5523 33 26 31.9998 26C31 26 30 25.5523 30 25C30 24.4477 31.4475 24 31.9998 24C32.5521 24 34 24.4477 34 25Z" fill="black"/>
<path d="M32 25.5C32 25.5 32 25.5474 32 27.5M32 27.5C32 27.5 30.9581 28 30.5 28C29.639 28 29 27.5 29 27.5M32 27.5C32 27.5 32.8685 28 33.5 28C34.2569 28 35 27.5 35 27.5" stroke="black" stroke-width="0.5"/>
</g>
</g>
<defs>
<filter id="filter0_d_1772_45" x="1" y="6" width="62" height="60" filterUnits="userSpaceOnUse" color-interpolation-filters="sRGB">
<feFlood flood-opacity="0" result="BackgroundImageFix"/>
<feColorMatrix in="SourceAlpha" type="matrix" values="0 0 0 0 0 0 0 0 0 0 0 0 0 0 0 0 0 0 127 0" result="hardAlpha"/>
<feOffset dy="4"/>
<feGaussianBlur stdDeviation="2"/>
<feComposite in2="hardAlpha" operator="out"/>
<feColorMatrix type="matrix" values="0 0 0 0 0 0 0 0 0 0 0 0 0 0 0 0 0 0 0.25 0"/>
<feBlend mode="normal" in2="BackgroundImageFix" result="effect1_dropShadow_1772_45"/>
<feBlend mode="normal" in="SourceGraphic" in2="effect1_dropShadow_1772_45" result="shape"/>
</filter>
<filter id="filter1_d_1772_45" x="19" y="14.5" width="12.5" height="12.5" filterUnits="userSpaceOnUse" color-interpolation-filters="sRGB">
<feFlood flood-opacity="0" result="BackgroundImageFix"/>
<feColorMatrix in="SourceAlpha" type="matrix" values="0 0 0 0 0 0 0 0 0 0 0 0 0 0 0 0 0 0 127 0" result="hardAlpha"/>
<feOffset dy="4"/>
<feGaussianBlur stdDeviation="2"/>
<feColorMatrix type="matrix" values="0 0 0 0 0 0 0 0 0 0 0 0 0 0 0 0 0 0 0.25 0"/>
<feBlend mode="normal" in2="BackgroundImageFix" result="effect1_dropShadow_1772_45"/>
<feBlend mode="normal" in="SourceGraphic" in2="effect1_dropShadow_1772_45" result="shape"/>
</filter>
<filter id="filter2_d_1772_45" x="32.5" y="14.5" width="12.5" height="12.5" filterUnits="userSpaceOnUse" color-interpolation-filters="sRGB">
<feFlood flood-opacity="0" result="BackgroundImageFix"/>
<feColorMatrix in="SourceAlpha" type="matrix" values="0 0 0 0 0 0 0 0 0 0 0 0 0 0 0 0 0 0 127 0" result="hardAlpha"/>
<feOffset dy="4"/>
<feGaussianBlur stdDeviation="2"/>
<feColorMatrix type="matrix" values="0 0 0 0 0 0 0 0 0 0 0 0 0 0 0 0 0 0 0.25 0"/>
<feBlend mode="normal" in2="BackgroundImageFix" result="effect1_dropShadow_1772_45"/>
<feBlend mode="normal" in="SourceGraphic" in2="effect1_dropShadow_1772_45" result="shape"/>
</filter>
<filter id="filter3_d_1772_45" x="18.2461" y="15.5" width="27.5078" height="25" filterUnits="userSpaceOnUse" color-interpolation-filters="sRGB">
<feFlood flood-opacity="0" result="BackgroundImageFix"/>
<feColorMatrix in="SourceAlpha" type="matrix" values="0 0 0 0 0 0 0 0 0 0 0 0 0 0 0 0 0 0 127 0" result="hardAlpha"/>
<feOffset dy="4"/>
<feGaussianBlur stdDeviation="2"/>
<feColorMatrix type="matrix" values="0 0 0 0 0 0 0 0 0 0 0 0 0 0 0 0 0 0 0.25 0"/>
<feBlend mode="normal" in2="BackgroundImageFix" result="effect1_dropShadow_1772_45"/>
<feBlend mode="normal" in="SourceGraphic" in2="effect1_dropShadow_1772_45" result="shape"/>
</filter>
<filter id="filter4_d_1772_45" x="21" y="19" width="11" height="11" filterUnits="userSpaceOnUse" color-interpolation-filters="sRGB">
<feFlood flood-opacity="0" result="BackgroundImageFix"/>
<feColorMatrix in="SourceAlpha" type="matrix" values="0 0 0 0 0 0 0 0 0 0 0 0 0 0 0 0 0 0 127 0" result="hardAlpha"/>
<feOffset dy="4"/>
<feGaussianBlur stdDeviation="2"/>
<feColorMatrix type="matrix" values="0 0 0 0 0 0 0 0 0 0 0 0 0 0 0 0 0 0 0.25 0"/>
<feBlend mode="normal" in2="BackgroundImageFix" result="effect1_dropShadow_1772_45"/>
<feBlend mode="normal" in="SourceGraphic" in2="effect1_dropShadow_1772_45" result="shape"/>
</filter>
<filter id="filter5_d_1772_45" x="21.5" y="19.5" width="10" height="10" filterUnits="userSpaceOnUse" color-interpolation-filters="sRGB">
<feFlood flood-opacity="0" result="BackgroundImageFix"/>
<feColorMatrix in="SourceAlpha" type="matrix" values="0 0 0 0 0 0 0 0 0 0 0 0 0 0 0 0 0 0 127 0" result="hardAlpha"/>
<feOffset dy="4"/>
<feGaussianBlur stdDeviation="2"/>
<feColorMatrix type="matrix" values="0 0 0 0 0 0 0 0 0 0 0 0 0 0 0 0 0 0 0.25 0"/>
<feBlend mode="normal" in2="BackgroundImageFix" result="effect1_dropShadow_1772_45"/>
<feBlend mode="normal" in="SourceGraphic" in2="effect1_dropShadow_1772_45" result="shape"/>
</filter>
<filter id="filter6_d_1772_45" x="32" y="19" width="11" height="11" filterUnits="userSpaceOnUse" color-interpolation-filters="sRGB">
<feFlood flood-opacity="0" result="BackgroundImageFix"/>
<feColorMatrix in="SourceAlpha" type="matrix" values="0 0 0 0 0 0 0 0 0 0 0 0 0 0 0 0 0 0 127 0" result="hardAlpha"/>
<feOffset dy="4"/>
<feGaussianBlur stdDeviation="2"/>
<feColorMatrix type="matrix" values="0 0 0 0 0 0 0 0 0 0 0 0 0 0 0 0 0 0 0.25 0"/>
<feBlend mode="normal" in2="BackgroundImageFix" result="effect1_dropShadow_1772_45"/>
<feBlend mode="normal" in="SourceGraphic" in2="effect1_dropShadow_1772_45" result="shape"/>
</filter>
<filter id="filter7_d_1772_45" x="32.5" y="19.5" width="10" height="10" filterUnits="userSpaceOnUse" color-interpolation-filters="sRGB">
<feFlood flood-opacity="0" result="BackgroundImageFix"/>
<feColorMatrix in="SourceAlpha" type="matrix" values="0 0 0 0 0 0 0 0 0 0 0 0 0 0 0 0 0 0 127 0" result="hardAlpha"/>
<feOffset dy="4"/>
<feGaussianBlur stdDeviation="2"/>
<feColorMatrix type="matrix" values="0 0 0 0 0 0 0 0 0 0 0 0 0 0 0 0 0 0 0.25 0"/>
<feBlend mode="normal" in2="BackgroundImageFix" result="effect1_dropShadow_1772_45"/>
<feBlend mode="normal" in="SourceGraphic" in2="effect1_dropShadow_1772_45" result="shape"/>
</filter>
<clipPath id="clip0_1772_45">
<rect width="64" height="64" fill="white"/>
</clipPath>
<clipPath id="clip1_1772_45">
<rect x="16" y="8" width="32" height="32" rx="16" fill="white"/>
</clipPath>
</defs>
</svg>
